<svg xmlns="http://www.w3.org/2000/svg" width="547.285" height="132" viewBox="0 0 547.285 132">
  <g id="Grupo_979311" data-name="Grupo 979311" transform="translate(-350.98 -6756)">
    <path id="Trazado_691697" data-name="Trazado 691697" d="M11.625-7.887H4.23V-1.84h8.59V0H1.98V-17.062H12.7v1.84H4.23v5.5h7.395Zm13.406.352h-7.16V0h-2.25V-17.062h10.57v1.84h-8.32v5.848h7.16ZM31.3,0h-2.25V-17.062H31.3ZM47.965-5.414a6.277,6.277,0,0,1-2,4.178A6.548,6.548,0,0,1,41.5.234,6.012,6.012,0,0,1,36.65-1.934a8.722,8.722,0,0,1-1.822-5.8V-9.375a9.722,9.722,0,0,1,.85-4.184,6.346,6.346,0,0,1,2.408-2.771A6.705,6.705,0,0,1,41.7-17.3a6.165,6.165,0,0,1,4.359,1.518,6.353,6.353,0,0,1,1.91,4.2H45.7a4.9,4.9,0,0,0-1.271-2.962,3.847,3.847,0,0,0-2.736-.917,4.026,4.026,0,0,0-3.381,1.6A7.323,7.323,0,0,0,37.09-9.323v1.654a7.527,7.527,0,0,0,1.16,4.422A3.749,3.749,0,0,0,41.5-1.605a4.33,4.33,0,0,0,2.877-.85A4.715,4.715,0,0,0,45.7-5.414ZM53.449,0H51.2V-17.062h2.25ZM67.207-7.887H59.813V-1.84H68.4V0H57.563V-17.062H68.285v1.84H59.813v5.5h7.395ZM84.316,0H82.055l-8.59-13.148V0H71.2V-17.062h2.262L82.078-3.855V-17.062h2.238Zm16.547-5.414a6.277,6.277,0,0,1-2,4.178A6.548,6.548,0,0,1,94.395.234a6.012,6.012,0,0,1-4.846-2.168,8.722,8.722,0,0,1-1.822-5.8V-9.375a9.722,9.722,0,0,1,.85-4.184,6.346,6.346,0,0,1,2.408-2.771,6.705,6.705,0,0,1,3.609-.967,6.165,6.165,0,0,1,4.359,1.518,6.353,6.353,0,0,1,1.91,4.2H98.6A4.9,4.9,0,0,0,97.33-14.54a3.847,3.847,0,0,0-2.736-.917,4.026,4.026,0,0,0-3.381,1.6,7.323,7.323,0,0,0-1.225,4.539v1.654a7.527,7.527,0,0,0,1.16,4.422,3.749,3.749,0,0,0,3.246,1.642,4.33,4.33,0,0,0,2.877-.85A4.715,4.715,0,0,0,98.6-5.414ZM106.348,0H104.1V-17.062h2.25Zm13.535-4.465h-7.148L111.129,0h-2.32l6.516-17.062h1.969L123.82,0h-2.309ZM113.414-6.3h5.8l-2.906-7.98Zm22.277-3.234h-9.773v-1.887h9.773Zm0,4.863h-9.773V-6.551h9.773Z" transform="translate(349 6830)" fill="#12263f"/>
    <path id="Trazado_691337" data-name="Trazado 691337" d="M-8457.126-4878h279.017" transform="translate(8961 11700)" fill="none" stroke="#000" stroke-width="1"/>
    <g id="Grupo_979310" data-name="Grupo 979310" transform="translate(-48)">
      <path id="Trazado_691698" data-name="Trazado 691698" d="M-86.006-5.752h-3.34V0H-91.23V-14.219h4.707a5.571,5.571,0,0,1,3.7,1.094,3.935,3.935,0,0,1,1.294,3.184,3.828,3.828,0,0,1-.718,2.314,4.285,4.285,0,0,1-2,1.475l3.34,6.035V0H-82.92Zm-3.34-1.533h2.881a3.249,3.249,0,0,0,2.222-.724,2.448,2.448,0,0,0,.825-1.937,2.578,2.578,0,0,0-.786-2.025,3.329,3.329,0,0,0-2.271-.714h-2.871ZM-74.8.2a4.617,4.617,0,0,1-3.5-1.411A5.237,5.237,0,0,1-79.648-4.99v-.332a6.341,6.341,0,0,1,.6-2.808,4.685,4.685,0,0,1,1.68-1.934,4.223,4.223,0,0,1,2.339-.7,3.957,3.957,0,0,1,3.2,1.357,5.877,5.877,0,0,1,1.143,3.887v.752h-7.158a3.756,3.756,0,0,0,.913,2.524,2.87,2.87,0,0,0,2.222.962,3.147,3.147,0,0,0,1.621-.391,4.073,4.073,0,0,0,1.162-1.035l1.1.859A4.437,4.437,0,0,1-74.8.2Zm-.225-9.473a2.41,2.41,0,0,0-1.836.8,3.869,3.869,0,0,0-.918,2.231h5.293v-.137a3.441,3.441,0,0,0-.742-2.134A2.269,2.269,0,0,0-75.029-9.277ZM-62.441-2.8a1.33,1.33,0,0,0-.552-1.138,5.311,5.311,0,0,0-1.924-.7,9.1,9.1,0,0,1-2.178-.7,3.1,3.1,0,0,1-1.191-.977,2.336,2.336,0,0,1-.386-1.348,2.741,2.741,0,0,1,1.1-2.2,4.291,4.291,0,0,1,2.808-.9,4.415,4.415,0,0,1,2.915.928,2.947,2.947,0,0,1,1.118,2.373h-1.816a1.631,1.631,0,0,0-.63-1.279,2.36,2.36,0,0,0-1.587-.537,2.47,2.47,0,0,0-1.543.43,1.353,1.353,0,0,0-.557,1.123,1.1,1.1,0,0,0,.518.986,6.368,6.368,0,0,0,1.87.635,9.744,9.744,0,0,1,2.192.723A3.2,3.2,0,0,1-61.04-4.37a2.485,2.485,0,0,1,.405,1.44A2.7,2.7,0,0,1-61.768-.659,4.752,4.752,0,0,1-64.707.2a5.321,5.321,0,0,1-2.246-.449,3.653,3.653,0,0,1-1.528-1.255,3.025,3.025,0,0,1-.552-1.743h1.807a1.87,1.87,0,0,0,.728,1.44,2.822,2.822,0,0,0,1.792.532,2.913,2.913,0,0,0,1.646-.415A1.275,1.275,0,0,0-62.441-2.8Zm10.684,1.758A3.837,3.837,0,0,1-54.854.2a3.285,3.285,0,0,1-2.573-.981,4.248,4.248,0,0,1-.894-2.905v-6.875h1.807V-3.74q0,2.4,1.953,2.4a2.7,2.7,0,0,0,2.754-1.543v-7.686H-50V0h-1.719ZM-45.293,0H-47.1V-15h1.807Zm5.342-13.125v2.559h1.973v1.4h-1.973v6.561a1.467,1.467,0,0,0,.264.953,1.11,1.11,0,0,0,.9.318,4.374,4.374,0,0,0,.859-.117V0A5.268,5.268,0,0,1-39.316.2a2.25,2.25,0,0,1-1.826-.732,3.147,3.147,0,0,1-.615-2.08V-9.17h-1.924v-1.4h1.924v-2.559ZM-29.346,0A3.8,3.8,0,0,1-29.6-1.113,4.031,4.031,0,0,1-32.607.2a3.73,3.73,0,0,1-2.563-.884,2.859,2.859,0,0,1-1-2.241,2.987,2.987,0,0,1,1.255-2.563,5.916,5.916,0,0,1,3.53-.913h1.758v-.83A2.029,2.029,0,0,0-30.2-8.745a2.276,2.276,0,0,0-1.67-.562,2.634,2.634,0,0,0-1.621.488,1.439,1.439,0,0,0-.654,1.182h-1.816A2.493,2.493,0,0,1-35.4-9.165a3.832,3.832,0,0,1,1.523-1.167,5.125,5.125,0,0,1,2.114-.43,4.177,4.177,0,0,1,2.861.913,3.294,3.294,0,0,1,1.074,2.515v4.863a5.946,5.946,0,0,0,.371,2.314V0Zm-3-1.377a3.175,3.175,0,0,0,1.611-.439,2.658,2.658,0,0,0,1.1-1.143V-5.127h-1.416q-3.32,0-3.32,1.943A1.645,1.645,0,0,0-33.8-1.855,2.177,2.177,0,0,0-32.344-1.377Zm6.914-3.994a6.19,6.19,0,0,1,1.152-3.911,3.644,3.644,0,0,1,3.018-1.479,3.665,3.665,0,0,1,2.939,1.27V-15h1.807V0h-1.66l-.088-1.133A3.679,3.679,0,0,1-21.279.2a3.609,3.609,0,0,1-2.993-1.5A6.26,6.26,0,0,1-25.43-5.234Zm1.807.205a4.687,4.687,0,0,0,.742,2.813A2.4,2.4,0,0,0-20.83-1.338a2.636,2.636,0,0,0,2.51-1.543V-7.734a2.656,2.656,0,0,0-2.49-1.494A2.411,2.411,0,0,0-22.881-8.2,5.16,5.16,0,0,0-23.623-5.166Zm9.434-.215a6.241,6.241,0,0,1,.61-2.793,4.553,4.553,0,0,1,1.7-1.914,4.626,4.626,0,0,1,2.485-.674A4.456,4.456,0,0,1-5.9-9.268,5.748,5.748,0,0,1-4.57-5.293v.127A6.3,6.3,0,0,1-5.161-2.4,4.486,4.486,0,0,1-6.851-.488,4.679,4.679,0,0,1-9.375.2,4.445,4.445,0,0,1-12.856-1.3a5.719,5.719,0,0,1-1.333-3.955Zm1.816.215a4.52,4.52,0,0,0,.815,2.822A2.61,2.61,0,0,0-9.375-1.279,2.594,2.594,0,0,0-7.187-2.358a4.943,4.943,0,0,0,.811-3.022A4.513,4.513,0,0,0-7.2-8.2,2.623,2.623,0,0,0-9.395-9.277a2.594,2.594,0,0,0-2.158,1.064A4.906,4.906,0,0,0-12.373-5.166ZM9.17,0a3.8,3.8,0,0,1-.254-1.113A4.031,4.031,0,0,1,5.908.2,3.73,3.73,0,0,1,3.345-.688a2.859,2.859,0,0,1-1-2.241A2.987,2.987,0,0,1,3.6-5.493a5.916,5.916,0,0,1,3.53-.913H8.887v-.83A2.029,2.029,0,0,0,8.32-8.745a2.276,2.276,0,0,0-1.67-.562,2.634,2.634,0,0,0-1.621.488,1.439,1.439,0,0,0-.654,1.182H2.559A2.493,2.493,0,0,1,3.12-9.165a3.832,3.832,0,0,1,1.523-1.167,5.125,5.125,0,0,1,2.114-.43,4.177,4.177,0,0,1,2.861.913,3.294,3.294,0,0,1,1.074,2.515v4.863a5.946,5.946,0,0,0,.371,2.314V0Zm-3-1.377a3.175,3.175,0,0,0,1.611-.439,2.658,2.658,0,0,0,1.1-1.143V-5.127H7.471q-3.32,0-3.32,1.943a1.645,1.645,0,0,0,.566,1.328A2.177,2.177,0,0,0,6.172-1.377ZM15.488,0H13.682V-15h1.807Zm7.129-1.279a2.6,2.6,0,0,0,1.689-.586,2.061,2.061,0,0,0,.8-1.465h1.709A3.276,3.276,0,0,1,26.191-1.6,4.116,4.116,0,0,1,24.653-.293,4.438,4.438,0,0,1,22.617.2a4.353,4.353,0,0,1-3.433-1.44,5.737,5.737,0,0,1-1.274-3.94v-.3a6.361,6.361,0,0,1,.566-2.744A4.314,4.314,0,0,1,20.1-10.1a4.619,4.619,0,0,1,2.5-.664A4.238,4.238,0,0,1,25.562-9.7a3.8,3.8,0,0,1,1.255,2.764H25.107a2.49,2.49,0,0,0-.776-1.685,2.415,2.415,0,0,0-1.724-.659,2.529,2.529,0,0,0-2.134.991,4.655,4.655,0,0,0-.757,2.866v.342a4.562,4.562,0,0,0,.752,2.813A2.541,2.541,0,0,0,22.617-1.279ZM35.371,0a3.8,3.8,0,0,1-.254-1.113A4.031,4.031,0,0,1,32.109.2a3.73,3.73,0,0,1-2.563-.884,2.859,2.859,0,0,1-1-2.241A2.987,2.987,0,0,1,29.8-5.493a5.916,5.916,0,0,1,3.53-.913h1.758v-.83a2.029,2.029,0,0,0-.566-1.509,2.276,2.276,0,0,0-1.67-.562,2.634,2.634,0,0,0-1.621.488,1.439,1.439,0,0,0-.654,1.182H28.76a2.493,2.493,0,0,1,.562-1.528,3.832,3.832,0,0,1,1.523-1.167,5.125,5.125,0,0,1,2.114-.43,4.177,4.177,0,0,1,2.861.913,3.294,3.294,0,0,1,1.074,2.515v4.863a5.946,5.946,0,0,0,.371,2.314V0Zm-3-1.377a3.175,3.175,0,0,0,1.611-.439,2.658,2.658,0,0,0,1.1-1.143V-5.127H33.672q-3.32,0-3.32,1.943a1.645,1.645,0,0,0,.566,1.328A2.177,2.177,0,0,0,32.373-1.377Zm9.063-9.189.059,1.328a3.851,3.851,0,0,1,3.164-1.523q3.35,0,3.379,3.779V0H46.23V-6.992a2.432,2.432,0,0,0-.522-1.689,2.094,2.094,0,0,0-1.6-.547,2.607,2.607,0,0,0-1.543.469,3.183,3.183,0,0,0-1.035,1.23V0H39.727V-10.566ZM52.461-1.475h6.182V0H50.254V-1.328l5.83-7.744H50.342v-1.494H58.35v1.279ZM67.2,0a3.8,3.8,0,0,1-.254-1.113A4.031,4.031,0,0,1,63.936.2a3.73,3.73,0,0,1-2.563-.884,2.859,2.859,0,0,1-1-2.241,2.987,2.987,0,0,1,1.255-2.563,5.916,5.916,0,0,1,3.53-.913h1.758v-.83a2.029,2.029,0,0,0-.566-1.509,2.276,2.276,0,0,0-1.67-.562,2.634,2.634,0,0,0-1.621.488A1.439,1.439,0,0,0,62.4-7.637H60.586a2.493,2.493,0,0,1,.562-1.528,3.832,3.832,0,0,1,1.523-1.167,5.125,5.125,0,0,1,2.114-.43,4.177,4.177,0,0,1,2.861.913,3.294,3.294,0,0,1,1.074,2.515v4.863a5.946,5.946,0,0,0,.371,2.314V0Zm-3-1.377a3.175,3.175,0,0,0,1.611-.439,2.658,2.658,0,0,0,1.1-1.143V-5.127H65.5q-3.32,0-3.32,1.943a1.645,1.645,0,0,0,.566,1.328A2.177,2.177,0,0,0,64.2-1.377Zm6.914-3.994a6.19,6.19,0,0,1,1.152-3.911,3.644,3.644,0,0,1,3.018-1.479,3.665,3.665,0,0,1,2.939,1.27V-15h1.807V0h-1.66l-.088-1.133A3.679,3.679,0,0,1,75.264.2a3.609,3.609,0,0,1-2.993-1.5,6.26,6.26,0,0,1-1.157-3.926Zm1.807.205a4.687,4.687,0,0,0,.742,2.813,2.4,2.4,0,0,0,2.051,1.016,2.636,2.636,0,0,0,2.51-1.543V-7.734a2.656,2.656,0,0,0-2.49-1.494A2.411,2.411,0,0,0,73.662-8.2,5.16,5.16,0,0,0,72.92-5.166Zm9.434-.215a6.241,6.241,0,0,1,.61-2.793,4.553,4.553,0,0,1,1.7-1.914,4.626,4.626,0,0,1,2.485-.674A4.456,4.456,0,0,1,90.64-9.268a5.748,5.748,0,0,1,1.333,3.975v.127A6.3,6.3,0,0,1,91.382-2.4,4.486,4.486,0,0,1,89.692-.488,4.679,4.679,0,0,1,87.168.2,4.445,4.445,0,0,1,83.687-1.3a5.719,5.719,0,0,1-1.333-3.955Zm1.816.215a4.52,4.52,0,0,0,.815,2.822,2.61,2.61,0,0,0,2.183,1.064,2.594,2.594,0,0,0,2.188-1.079,4.943,4.943,0,0,0,.811-3.022A4.513,4.513,0,0,0,89.341-8.2a2.623,2.623,0,0,0-2.192-1.079A2.594,2.594,0,0,0,84.99-8.213,4.906,4.906,0,0,0,84.17-5.166Z" transform="translate(664 6785)" fill="#12263f"/>
      <text id="_" data-name=")" transform="translate(771 6806)" fill="#12263f" font-size="48" font-family="Roboto-Light, Roboto" font-weight="300"><tspan x="-7.816" y="0">)</tspan></text>
      <text id="_2" data-name=")" transform="matrix(-1, 0, 0, 1, 560, 6806)" fill="#12263f" font-size="48" font-family="Roboto-Light, Roboto" font-weight="300"><tspan x="-7.816" y="0">)</tspan></text>
      <path id="Trazado_691699" data-name="Trazado 691699" d="M-33.154-4.512A5.231,5.231,0,0,1-34.819-1.03,5.457,5.457,0,0,1-38.545.2a5.01,5.01,0,0,1-4.038-1.807A7.268,7.268,0,0,1-44.1-6.445V-7.812a8.1,8.1,0,0,1,.708-3.486,5.288,5.288,0,0,1,2.007-2.31,5.588,5.588,0,0,1,3.008-.806,5.138,5.138,0,0,1,3.633,1.265,5.294,5.294,0,0,1,1.592,3.5h-1.885a4.085,4.085,0,0,0-1.06-2.468,3.206,3.206,0,0,0-2.28-.764A3.355,3.355,0,0,0-41.2-11.552a6.1,6.1,0,0,0-1.021,3.782v1.378a6.273,6.273,0,0,0,.967,3.685,3.124,3.124,0,0,0,2.705,1.368,3.608,3.608,0,0,0,2.4-.708,3.929,3.929,0,0,0,1.108-2.466Zm1.8-.869a6.241,6.241,0,0,1,.61-2.793,4.553,4.553,0,0,1,1.7-1.914,4.626,4.626,0,0,1,2.485-.674,4.456,4.456,0,0,1,3.491,1.494,5.748,5.748,0,0,1,1.333,3.975v.127A6.3,6.3,0,0,1-22.329-2.4,4.486,4.486,0,0,1-24.019-.488,4.679,4.679,0,0,1-26.543.2,4.445,4.445,0,0,1-30.024-1.3a5.719,5.719,0,0,1-1.333-3.955Zm1.816.215a4.52,4.52,0,0,0,.815,2.822,2.61,2.61,0,0,0,2.183,1.064,2.594,2.594,0,0,0,2.188-1.079,4.943,4.943,0,0,0,.811-3.022A4.513,4.513,0,0,0-24.37-8.2a2.623,2.623,0,0,0-2.192-1.079,2.594,2.594,0,0,0-2.158,1.064A4.906,4.906,0,0,0-29.541-5.166ZM-13.32-2.8a1.33,1.33,0,0,0-.552-1.138,5.311,5.311,0,0,0-1.924-.7,9.1,9.1,0,0,1-2.178-.7,3.1,3.1,0,0,1-1.191-.977,2.336,2.336,0,0,1-.386-1.348,2.741,2.741,0,0,1,1.1-2.2,4.291,4.291,0,0,1,2.808-.9,4.415,4.415,0,0,1,2.915.928,2.947,2.947,0,0,1,1.118,2.373h-1.816a1.631,1.631,0,0,0-.63-1.279,2.36,2.36,0,0,0-1.587-.537,2.47,2.47,0,0,0-1.543.43,1.353,1.353,0,0,0-.557,1.123,1.1,1.1,0,0,0,.518.986,6.368,6.368,0,0,0,1.87.635,9.744,9.744,0,0,1,2.192.723A3.2,3.2,0,0,1-11.919-4.37a2.485,2.485,0,0,1,.405,1.44A2.7,2.7,0,0,1-12.646-.659,4.752,4.752,0,0,1-15.586.2a5.321,5.321,0,0,1-2.246-.449A3.653,3.653,0,0,1-19.36-1.509a3.025,3.025,0,0,1-.552-1.743h1.807a1.87,1.87,0,0,0,.728,1.44,2.822,2.822,0,0,0,1.792.532,2.913,2.913,0,0,0,1.646-.415A1.275,1.275,0,0,0-13.32-2.8Zm6.611-10.322v2.559h1.973v1.4H-6.709v6.561a1.467,1.467,0,0,0,.264.953,1.11,1.11,0,0,0,.9.318,4.374,4.374,0,0,0,.859-.117V0A5.268,5.268,0,0,1-6.074.2,2.25,2.25,0,0,1-7.9-.537a3.147,3.147,0,0,1-.615-2.08V-9.17h-1.924v-1.4h1.924v-2.559ZM-3.3-5.381a6.241,6.241,0,0,1,.61-2.793,4.553,4.553,0,0,1,1.7-1.914,4.626,4.626,0,0,1,2.485-.674A4.456,4.456,0,0,1,4.985-9.268,5.748,5.748,0,0,1,6.318-5.293v.127A6.3,6.3,0,0,1,5.728-2.4,4.486,4.486,0,0,1,4.038-.488,4.679,4.679,0,0,1,1.514.2,4.445,4.445,0,0,1-1.968-1.3,5.719,5.719,0,0,1-3.3-5.254Zm1.816.215A4.52,4.52,0,0,0-.669-2.344,2.61,2.61,0,0,0,1.514-1.279,2.594,2.594,0,0,0,3.7-2.358a4.943,4.943,0,0,0,.811-3.022A4.513,4.513,0,0,0,3.687-8.2,2.623,2.623,0,0,0,1.494-9.277,2.594,2.594,0,0,0-.664-8.213,4.906,4.906,0,0,0-1.484-5.166ZM18.643-8.945a5.414,5.414,0,0,0-.889-.068A2.381,2.381,0,0,0,15.342-7.5V0H13.535V-10.566h1.758l.029,1.221a2.813,2.813,0,0,1,2.52-1.416,1.846,1.846,0,0,1,.8.137ZM24.688.2a4.617,4.617,0,0,1-3.5-1.411A5.237,5.237,0,0,1,19.844-4.99v-.332a6.341,6.341,0,0,1,.6-2.808,4.685,4.685,0,0,1,1.68-1.934,4.223,4.223,0,0,1,2.339-.7,3.957,3.957,0,0,1,3.2,1.357,5.877,5.877,0,0,1,1.143,3.887v.752H21.65a3.756,3.756,0,0,0,.913,2.524,2.87,2.87,0,0,0,2.222.962,3.147,3.147,0,0,0,1.621-.391,4.073,4.073,0,0,0,1.162-1.035l1.1.859A4.437,4.437,0,0,1,24.688.2Zm-.225-9.473a2.41,2.41,0,0,0-1.836.8,3.868,3.868,0,0,0-.918,2.231H27v-.137a3.441,3.441,0,0,0-.742-2.134A2.269,2.269,0,0,0,24.463-9.277ZM37.422,0a3.8,3.8,0,0,1-.254-1.113A4.031,4.031,0,0,1,34.16.2,3.73,3.73,0,0,1,31.6-.688a2.859,2.859,0,0,1-1-2.241,2.987,2.987,0,0,1,1.255-2.563,5.916,5.916,0,0,1,3.53-.913h1.758v-.83a2.029,2.029,0,0,0-.566-1.509,2.276,2.276,0,0,0-1.67-.562,2.634,2.634,0,0,0-1.621.488,1.439,1.439,0,0,0-.654,1.182H30.811a2.493,2.493,0,0,1,.562-1.528A3.832,3.832,0,0,1,32.9-10.332a5.125,5.125,0,0,1,2.114-.43,4.177,4.177,0,0,1,2.861.913,3.294,3.294,0,0,1,1.074,2.515v4.863a5.946,5.946,0,0,0,.371,2.314V0Zm-3-1.377a3.175,3.175,0,0,0,1.611-.439,2.658,2.658,0,0,0,1.1-1.143V-5.127H35.723q-3.32,0-3.32,1.943a1.645,1.645,0,0,0,.566,1.328A2.177,2.177,0,0,0,34.424-1.377ZM43.74,0H41.934V-15H43.74Z" transform="translate(664 6817)" fill="#12263f"/>
      <path id="Trazado_691338" data-name="Trazado 691338" d="M-8457.126-4878h186" transform="translate(9028.126 11673)" fill="none" stroke="#000" stroke-width="1"/>
    </g>
    <path id="Trazado_691700" data-name="Trazado 691700" d="M3.223-9.6.273-10.482l.449-1.473,2.949,1.093-.088-3.356H5.078l-.1,3.4,2.9-1.073L8.33-10.4l-3,.888L7.266-6.87l-1.211.918L4.238-8.765,2.48-6.021,1.26-6.909Zm21.426-3.081h-4.57V0H18.213V-12.686H13.652v-1.533h11ZM28.438,0H26.631V-10.566h1.807ZM26.484-13.369a1.078,1.078,0,0,1,.269-.742,1.008,1.008,0,0,1,.8-.3,1.024,1.024,0,0,1,.8.3,1.067,1.067,0,0,1,.273.742,1.032,1.032,0,0,1-.273.732,1.043,1.043,0,0,1-.8.293,1.026,1.026,0,0,1-.8-.293A1.043,1.043,0,0,1,26.484-13.369ZM35.713.2a4.617,4.617,0,0,1-3.5-1.411A5.237,5.237,0,0,1,30.869-4.99v-.332a6.341,6.341,0,0,1,.6-2.808,4.685,4.685,0,0,1,1.68-1.934,4.223,4.223,0,0,1,2.339-.7,3.957,3.957,0,0,1,3.2,1.357,5.877,5.877,0,0,1,1.143,3.887v.752H32.676a3.756,3.756,0,0,0,.913,2.524,2.87,2.87,0,0,0,2.222.962,3.147,3.147,0,0,0,1.621-.391,4.073,4.073,0,0,0,1.162-1.035l1.1.859A4.437,4.437,0,0,1,35.713.2Zm-.225-9.473a2.41,2.41,0,0,0-1.836.8,3.868,3.868,0,0,0-.918,2.231h5.293v-.137a3.441,3.441,0,0,0-.742-2.134A2.269,2.269,0,0,0,35.488-9.277Zm8.135-1.289.049,1.172a3.9,3.9,0,0,1,3.135-1.367,3.021,3.021,0,0,1,3.018,1.7,4,4,0,0,1,1.372-1.23,4.052,4.052,0,0,1,2-.469q3.477,0,3.535,3.682V0H54.922V-6.973A2.426,2.426,0,0,0,54.4-8.667a2.279,2.279,0,0,0-1.738-.562,2.4,2.4,0,0,0-1.67.6,2.436,2.436,0,0,0-.771,1.616V0H48.408V-6.924a2.016,2.016,0,0,0-2.256-2.3,2.417,2.417,0,0,0-2.432,1.514V0H41.914V-10.566Zm24.756,5.4a6.327,6.327,0,0,1-1.1,3.887A3.537,3.537,0,0,1,64.287.2,3.875,3.875,0,0,1,61.26-1.025V4.063H59.453V-10.566H61.1l.088,1.172a3.722,3.722,0,0,1,3.066-1.367,3.6,3.6,0,0,1,3.013,1.436,6.4,6.4,0,0,1,1.108,3.994Zm-1.807-.205a4.669,4.669,0,0,0-.762-2.822,2.454,2.454,0,0,0-2.09-1.035A2.656,2.656,0,0,0,61.26-7.773v5.049a2.661,2.661,0,0,0,2.48,1.445,2.442,2.442,0,0,0,2.065-1.03A5.1,5.1,0,0,0,66.572-5.371Zm3.623-.01a6.241,6.241,0,0,1,.61-2.793,4.553,4.553,0,0,1,1.7-1.914,4.626,4.626,0,0,1,2.485-.674,4.456,4.456,0,0,1,3.491,1.494,5.748,5.748,0,0,1,1.333,3.975v.127A6.3,6.3,0,0,1,79.224-2.4,4.486,4.486,0,0,1,77.534-.488,4.679,4.679,0,0,1,75.01.2,4.445,4.445,0,0,1,71.528-1.3,5.719,5.719,0,0,1,70.2-5.254Zm1.816.215a4.52,4.52,0,0,0,.815,2.822A2.61,2.61,0,0,0,75.01-1.279,2.594,2.594,0,0,0,77.2-2.358a4.943,4.943,0,0,0,.811-3.022A4.513,4.513,0,0,0,77.183-8.2,2.623,2.623,0,0,0,74.99-9.277a2.594,2.594,0,0,0-2.158,1.064A4.906,4.906,0,0,0,72.012-5.166ZM88.994,0H87.188V-10.566h1.807ZM87.041-13.369a1.078,1.078,0,0,1,.269-.742,1.008,1.008,0,0,1,.8-.3,1.024,1.024,0,0,1,.8.3,1.067,1.067,0,0,1,.273.742,1.032,1.032,0,0,1-.273.732,1.043,1.043,0,0,1-.8.293,1.026,1.026,0,0,1-.8-.293A1.043,1.043,0,0,1,87.041-13.369Zm6.553,2.8.059,1.328a3.85,3.85,0,0,1,3.164-1.523q3.35,0,3.379,3.779V0H98.389V-6.992a2.432,2.432,0,0,0-.522-1.689,2.094,2.094,0,0,0-1.6-.547,2.607,2.607,0,0,0-1.543.469,3.183,3.183,0,0,0-1.035,1.23V0H91.885V-10.566Zm12.813,8.115,2.617-8.115h1.846L107.08,0H105.7l-3.828-10.566h1.846ZM116.992.2a4.617,4.617,0,0,1-3.5-1.411,5.237,5.237,0,0,1-1.348-3.774v-.332a6.341,6.341,0,0,1,.6-2.808,4.685,4.685,0,0,1,1.68-1.934,4.223,4.223,0,0,1,2.339-.7,3.957,3.957,0,0,1,3.2,1.357,5.877,5.877,0,0,1,1.143,3.887v.752h-7.158a3.756,3.756,0,0,0,.913,2.524,2.87,2.87,0,0,0,2.222.962,3.147,3.147,0,0,0,1.621-.391,4.073,4.073,0,0,0,1.162-1.035l1.1.859A4.437,4.437,0,0,1,116.992.2Zm-.225-9.473a2.41,2.41,0,0,0-1.836.8,3.869,3.869,0,0,0-.918,2.231h5.293v-.137a3.441,3.441,0,0,0-.742-2.134A2.269,2.269,0,0,0,116.768-9.277Zm11.543.332a5.414,5.414,0,0,0-.889-.068A2.381,2.381,0,0,0,125.01-7.5V0H123.2V-10.566h1.758l.029,1.221a2.813,2.813,0,0,1,2.52-1.416,1.846,1.846,0,0,1,.8.137Zm4.6-4.18v2.559h1.973v1.4H132.91v6.561a1.467,1.467,0,0,0,.264.953,1.11,1.11,0,0,0,.9.318,4.374,4.374,0,0,0,.859-.117V0A5.268,5.268,0,0,1,133.545.2a2.25,2.25,0,0,1-1.826-.732,3.147,3.147,0,0,1-.615-2.08V-9.17H129.18v-1.4H131.1v-2.559ZM138.955,0h-1.807V-10.566h1.807ZM137-13.369a1.078,1.078,0,0,1,.269-.742,1.008,1.008,0,0,1,.8-.3,1.024,1.024,0,0,1,.8.3,1.067,1.067,0,0,1,.273.742,1.032,1.032,0,0,1-.273.732,1.043,1.043,0,0,1-.8.293,1.026,1.026,0,0,1-.8-.293A1.043,1.043,0,0,1,137-13.369Zm4.4,8a6.19,6.19,0,0,1,1.152-3.911,3.644,3.644,0,0,1,3.018-1.479,3.665,3.665,0,0,1,2.939,1.27V-15h1.807V0h-1.66l-.088-1.133A3.679,3.679,0,0,1,145.557.2a3.609,3.609,0,0,1-2.993-1.5,6.26,6.26,0,0,1-1.157-3.926Zm1.807.205a4.687,4.687,0,0,0,.742,2.813,2.4,2.4,0,0,0,2.051,1.016,2.636,2.636,0,0,0,2.51-1.543V-7.734a2.656,2.656,0,0,0-2.49-1.494,2.411,2.411,0,0,0-2.07,1.025A5.16,5.16,0,0,0,143.213-5.166Zm9.434-.215a6.241,6.241,0,0,1,.61-2.793,4.553,4.553,0,0,1,1.7-1.914,4.626,4.626,0,0,1,2.485-.674,4.456,4.456,0,0,1,3.491,1.494,5.748,5.748,0,0,1,1.333,3.975v.127a6.3,6.3,0,0,1-.591,2.769,4.486,4.486,0,0,1-1.689,1.909A4.679,4.679,0,0,1,157.461.2,4.445,4.445,0,0,1,153.979-1.3a5.719,5.719,0,0,1-1.333-3.955Zm1.816.215a4.52,4.52,0,0,0,.815,2.822,2.61,2.61,0,0,0,2.183,1.064,2.594,2.594,0,0,0,2.188-1.079,4.943,4.943,0,0,0,.811-3.022,4.513,4.513,0,0,0-.825-2.817,2.623,2.623,0,0,0-2.192-1.079,2.594,2.594,0,0,0-2.158,1.064A4.906,4.906,0,0,0,154.463-5.166Z" transform="translate(736 6804)" fill="#12263f"/>
    <path id="Trazado_691702" data-name="Trazado 691702" d="M3.223-9.6.273-10.482l.449-1.473,2.949,1.093-.088-3.356H5.078l-.1,3.4,2.9-1.073L8.33-10.4l-3,.888L7.266-6.87l-1.211.918L4.238-8.765,2.48-6.021,1.26-6.909Zm21.426-3.081h-4.57V0H18.213V-12.686H13.652v-1.533h11ZM28.438,0H26.631V-10.566h1.807ZM26.484-13.369a1.078,1.078,0,0,1,.269-.742,1.008,1.008,0,0,1,.8-.3,1.024,1.024,0,0,1,.8.3,1.067,1.067,0,0,1,.273.742,1.032,1.032,0,0,1-.273.732,1.043,1.043,0,0,1-.8.293,1.026,1.026,0,0,1-.8-.293A1.043,1.043,0,0,1,26.484-13.369ZM35.713.2a4.617,4.617,0,0,1-3.5-1.411A5.237,5.237,0,0,1,30.869-4.99v-.332a6.341,6.341,0,0,1,.6-2.808,4.685,4.685,0,0,1,1.68-1.934,4.223,4.223,0,0,1,2.339-.7,3.957,3.957,0,0,1,3.2,1.357,5.877,5.877,0,0,1,1.143,3.887v.752H32.676a3.756,3.756,0,0,0,.913,2.524,2.87,2.87,0,0,0,2.222.962,3.147,3.147,0,0,0,1.621-.391,4.073,4.073,0,0,0,1.162-1.035l1.1.859A4.437,4.437,0,0,1,35.713.2Zm-.225-9.473a2.41,2.41,0,0,0-1.836.8,3.868,3.868,0,0,0-.918,2.231h5.293v-.137a3.441,3.441,0,0,0-.742-2.134A2.269,2.269,0,0,0,35.488-9.277Zm8.135-1.289.049,1.172a3.9,3.9,0,0,1,3.135-1.367,3.021,3.021,0,0,1,3.018,1.7,4,4,0,0,1,1.372-1.23,4.052,4.052,0,0,1,2-.469q3.477,0,3.535,3.682V0H54.922V-6.973A2.426,2.426,0,0,0,54.4-8.667a2.279,2.279,0,0,0-1.738-.562,2.4,2.4,0,0,0-1.67.6,2.436,2.436,0,0,0-.771,1.616V0H48.408V-6.924a2.016,2.016,0,0,0-2.256-2.3,2.417,2.417,0,0,0-2.432,1.514V0H41.914V-10.566Zm24.756,5.4a6.327,6.327,0,0,1-1.1,3.887A3.537,3.537,0,0,1,64.287.2,3.875,3.875,0,0,1,61.26-1.025V4.063H59.453V-10.566H61.1l.088,1.172a3.722,3.722,0,0,1,3.066-1.367,3.6,3.6,0,0,1,3.013,1.436,6.4,6.4,0,0,1,1.108,3.994Zm-1.807-.205a4.669,4.669,0,0,0-.762-2.822,2.454,2.454,0,0,0-2.09-1.035A2.656,2.656,0,0,0,61.26-7.773v5.049a2.661,2.661,0,0,0,2.48,1.445,2.442,2.442,0,0,0,2.065-1.03A5.1,5.1,0,0,0,66.572-5.371Zm3.623-.01a6.241,6.241,0,0,1,.61-2.793,4.553,4.553,0,0,1,1.7-1.914,4.626,4.626,0,0,1,2.485-.674,4.456,4.456,0,0,1,3.491,1.494,5.748,5.748,0,0,1,1.333,3.975v.127A6.3,6.3,0,0,1,79.224-2.4,4.486,4.486,0,0,1,77.534-.488,4.679,4.679,0,0,1,75.01.2,4.445,4.445,0,0,1,71.528-1.3,5.719,5.719,0,0,1,70.2-5.254Zm1.816.215a4.52,4.52,0,0,0,.815,2.822A2.61,2.61,0,0,0,75.01-1.279,2.594,2.594,0,0,0,77.2-2.358a4.943,4.943,0,0,0,.811-3.022A4.513,4.513,0,0,0,77.183-8.2,2.623,2.623,0,0,0,74.99-9.277a2.594,2.594,0,0,0-2.158,1.064A4.906,4.906,0,0,0,72.012-5.166Zm23.945,0a6.327,6.327,0,0,1-1.1,3.887A3.537,3.537,0,0,1,91.865.2a3.875,3.875,0,0,1-3.027-1.221V4.063H87.031V-10.566h1.65l.088,1.172a3.722,3.722,0,0,1,3.066-1.367,3.6,3.6,0,0,1,3.013,1.436,6.4,6.4,0,0,1,1.108,3.994ZM94.15-5.371a4.669,4.669,0,0,0-.762-2.822A2.454,2.454,0,0,0,91.3-9.229a2.656,2.656,0,0,0-2.461,1.455v5.049a2.661,2.661,0,0,0,2.48,1.445,2.442,2.442,0,0,0,2.065-1.03A5.1,5.1,0,0,0,94.15-5.371Zm9.209-3.574a5.414,5.414,0,0,0-.889-.068A2.381,2.381,0,0,0,100.059-7.5V0H98.252V-10.566h1.758l.029,1.221a2.813,2.813,0,0,1,2.52-1.416,1.846,1.846,0,0,1,.8.137ZM109.4.2a4.617,4.617,0,0,1-3.5-1.411,5.237,5.237,0,0,1-1.348-3.774v-.332a6.341,6.341,0,0,1,.6-2.808,4.685,4.685,0,0,1,1.68-1.934,4.223,4.223,0,0,1,2.339-.7,3.957,3.957,0,0,1,3.2,1.357,5.877,5.877,0,0,1,1.143,3.887v.752h-7.158a3.756,3.756,0,0,0,.913,2.524,2.87,2.87,0,0,0,2.222.962,3.147,3.147,0,0,0,1.621-.391,4.073,4.073,0,0,0,1.162-1.035l1.1.859A4.437,4.437,0,0,1,109.4.2Zm-.225-9.473a2.41,2.41,0,0,0-1.836.8,3.869,3.869,0,0,0-.918,2.231h5.293v-.137a3.441,3.441,0,0,0-.742-2.134A2.269,2.269,0,0,0,109.18-9.277Zm9.795,6.826,2.617-8.115h1.846L119.648,0h-1.377l-3.828-10.566h1.846ZM127.139,0h-1.807V-10.566h1.807Zm-1.953-13.369a1.078,1.078,0,0,1,.269-.742,1.008,1.008,0,0,1,.8-.3,1.024,1.024,0,0,1,.8.3,1.067,1.067,0,0,1,.273.742,1.032,1.032,0,0,1-.273.732,1.043,1.043,0,0,1-.8.293,1.026,1.026,0,0,1-.8-.293A1.043,1.043,0,0,1,125.186-13.369Zm11,10.566a1.33,1.33,0,0,0-.552-1.138,5.311,5.311,0,0,0-1.924-.7,9.1,9.1,0,0,1-2.178-.7,3.1,3.1,0,0,1-1.191-.977,2.336,2.336,0,0,1-.386-1.348,2.741,2.741,0,0,1,1.1-2.2,4.291,4.291,0,0,1,2.808-.9,4.415,4.415,0,0,1,2.915.928,2.947,2.947,0,0,1,1.118,2.373h-1.816a1.631,1.631,0,0,0-.63-1.279,2.36,2.36,0,0,0-1.587-.537,2.47,2.47,0,0,0-1.543.43,1.353,1.353,0,0,0-.557,1.123,1.1,1.1,0,0,0,.518.986,6.368,6.368,0,0,0,1.87.635,9.744,9.744,0,0,1,2.192.723,3.2,3.2,0,0,1,1.245,1.011,2.485,2.485,0,0,1,.405,1.44,2.7,2.7,0,0,1-1.133,2.271A4.752,4.752,0,0,1,133.916.2a5.321,5.321,0,0,1-2.246-.449,3.653,3.653,0,0,1-1.528-1.255,3.025,3.025,0,0,1-.552-1.743H131.4a1.87,1.87,0,0,0,.728,1.44,2.822,2.822,0,0,0,1.792.532,2.913,2.913,0,0,0,1.646-.415A1.275,1.275,0,0,0,136.182-2.8Zm6.611-10.322v2.559h1.973v1.4h-1.973v6.561a1.467,1.467,0,0,0,.264.953,1.11,1.11,0,0,0,.9.318,4.374,4.374,0,0,0,.859-.117V0A5.268,5.268,0,0,1,143.428.2,2.25,2.25,0,0,1,141.6-.537a3.147,3.147,0,0,1-.615-2.08V-9.17h-1.924v-1.4h1.924v-2.559ZM146.2-5.381a6.241,6.241,0,0,1,.61-2.793,4.553,4.553,0,0,1,1.7-1.914A4.626,4.626,0,0,1,151-10.762a4.456,4.456,0,0,1,3.491,1.494,5.748,5.748,0,0,1,1.333,3.975v.127a6.3,6.3,0,0,1-.591,2.769A4.486,4.486,0,0,1,153.54-.488,4.679,4.679,0,0,1,151.016.2,4.445,4.445,0,0,1,147.534-1.3,5.719,5.719,0,0,1,146.2-5.254Zm1.816.215a4.52,4.52,0,0,0,.815,2.822,2.61,2.61,0,0,0,2.183,1.064A2.594,2.594,0,0,0,153.2-2.358a4.943,4.943,0,0,0,.811-3.022,4.513,4.513,0,0,0-.825-2.817A2.623,2.623,0,0,0,151-9.277a2.594,2.594,0,0,0-2.158,1.064A4.906,4.906,0,0,0,148.018-5.166Z" transform="translate(736 6870)" fill="#12263f"/>
    <g id="Grupo_979309" data-name="Grupo 979309" transform="translate(-48)">
      <text id="_3" data-name=")" transform="translate(771 6875)" fill="#12263f" font-size="48" font-family="Roboto-Light, Roboto" font-weight="300"><tspan x="-7.816" y="0">)</tspan></text>
      <text id="_4" data-name=")" transform="matrix(-1, 0, 0, 1, 560, 6875)" fill="#12263f" font-size="48" font-family="Roboto-Light, Roboto" font-weight="300"><tspan x="-7.816" y="0">)</tspan></text>
      <path id="Trazado_691701" data-name="Trazado 691701" d="M-76.436-5.752h-3.34V0H-81.66V-14.219h4.707a5.571,5.571,0,0,1,3.7,1.094,3.935,3.935,0,0,1,1.294,3.184,3.828,3.828,0,0,1-.718,2.314,4.285,4.285,0,0,1-2,1.475l3.34,6.035V0H-73.35Zm-3.34-1.533h2.881a3.249,3.249,0,0,0,2.222-.724,2.448,2.448,0,0,0,.825-1.937,2.578,2.578,0,0,0-.786-2.025,3.329,3.329,0,0,0-2.271-.714h-2.871ZM-65.234.2a4.617,4.617,0,0,1-3.5-1.411A5.237,5.237,0,0,1-70.078-4.99v-.332a6.341,6.341,0,0,1,.6-2.808,4.685,4.685,0,0,1,1.68-1.934,4.223,4.223,0,0,1,2.339-.7,3.957,3.957,0,0,1,3.2,1.357,5.877,5.877,0,0,1,1.143,3.887v.752h-7.158a3.756,3.756,0,0,0,.913,2.524,2.87,2.87,0,0,0,2.222.962,3.147,3.147,0,0,0,1.621-.391,4.073,4.073,0,0,0,1.162-1.035l1.1.859A4.437,4.437,0,0,1-65.234.2Zm-.225-9.473a2.41,2.41,0,0,0-1.836.8,3.869,3.869,0,0,0-.918,2.231h5.293v-.137a3.441,3.441,0,0,0-.742-2.134A2.269,2.269,0,0,0-65.459-9.277ZM-52.871-2.8a1.33,1.33,0,0,0-.552-1.138,5.311,5.311,0,0,0-1.924-.7,9.1,9.1,0,0,1-2.178-.7,3.1,3.1,0,0,1-1.191-.977A2.336,2.336,0,0,1-59.1-7.666a2.741,2.741,0,0,1,1.1-2.2,4.291,4.291,0,0,1,2.808-.9,4.415,4.415,0,0,1,2.915.928,2.947,2.947,0,0,1,1.118,2.373h-1.816a1.631,1.631,0,0,0-.63-1.279A2.36,2.36,0,0,0-55.2-9.277a2.47,2.47,0,0,0-1.543.43,1.353,1.353,0,0,0-.557,1.123,1.1,1.1,0,0,0,.518.986,6.368,6.368,0,0,0,1.87.635,9.744,9.744,0,0,1,2.192.723A3.2,3.2,0,0,1-51.47-4.37a2.485,2.485,0,0,1,.405,1.44A2.7,2.7,0,0,1-52.2-.659,4.752,4.752,0,0,1-55.137.2a5.321,5.321,0,0,1-2.246-.449,3.653,3.653,0,0,1-1.528-1.255,3.025,3.025,0,0,1-.552-1.743h1.807a1.87,1.87,0,0,0,.728,1.44,2.822,2.822,0,0,0,1.792.532,2.913,2.913,0,0,0,1.646-.415A1.275,1.275,0,0,0-52.871-2.8Zm10.684,1.758A3.837,3.837,0,0,1-45.283.2a3.285,3.285,0,0,1-2.573-.981,4.248,4.248,0,0,1-.894-2.905v-6.875h1.807V-3.74q0,2.4,1.953,2.4a2.7,2.7,0,0,0,2.754-1.543v-7.686h1.807V0h-1.719ZM-35.723,0h-1.807V-15h1.807Zm5.342-13.125v2.559h1.973v1.4h-1.973v6.561a1.467,1.467,0,0,0,.264.953,1.11,1.11,0,0,0,.9.318,4.374,4.374,0,0,0,.859-.117V0A5.268,5.268,0,0,1-29.746.2a2.25,2.25,0,0,1-1.826-.732,3.147,3.147,0,0,1-.615-2.08V-9.17h-1.924v-1.4h1.924v-2.559ZM-19.775,0a3.8,3.8,0,0,1-.254-1.113A4.031,4.031,0,0,1-23.037.2,3.73,3.73,0,0,1-25.6-.688a2.859,2.859,0,0,1-1-2.241,2.987,2.987,0,0,1,1.255-2.563,5.916,5.916,0,0,1,3.53-.913h1.758v-.83a2.029,2.029,0,0,0-.566-1.509,2.276,2.276,0,0,0-1.67-.562,2.634,2.634,0,0,0-1.621.488,1.439,1.439,0,0,0-.654,1.182h-1.816a2.493,2.493,0,0,1,.562-1.528A3.832,3.832,0,0,1-24.3-10.332a5.125,5.125,0,0,1,2.114-.43,4.177,4.177,0,0,1,2.861.913,3.294,3.294,0,0,1,1.074,2.515v4.863a5.946,5.946,0,0,0,.371,2.314V0Zm-3-1.377a3.175,3.175,0,0,0,1.611-.439,2.658,2.658,0,0,0,1.1-1.143V-5.127h-1.416q-3.32,0-3.32,1.943a1.645,1.645,0,0,0,.566,1.328A2.177,2.177,0,0,0-22.773-1.377Zm6.914-3.994a6.19,6.19,0,0,1,1.152-3.911,3.644,3.644,0,0,1,3.018-1.479A3.665,3.665,0,0,1-8.75-9.492V-15h1.807V0H-8.6l-.088-1.133A3.679,3.679,0,0,1-11.709.2a3.609,3.609,0,0,1-2.993-1.5,6.26,6.26,0,0,1-1.157-3.926Zm1.807.205a4.687,4.687,0,0,0,.742,2.813A2.4,2.4,0,0,0-11.26-1.338,2.636,2.636,0,0,0-8.75-2.881V-7.734a2.656,2.656,0,0,0-2.49-1.494A2.411,2.411,0,0,0-13.311-8.2,5.16,5.16,0,0,0-14.053-5.166Zm9.434-.215a6.241,6.241,0,0,1,.61-2.793,4.553,4.553,0,0,1,1.7-1.914,4.626,4.626,0,0,1,2.485-.674A4.456,4.456,0,0,1,3.667-9.268,5.748,5.748,0,0,1,5-5.293v.127A6.3,6.3,0,0,1,4.409-2.4,4.486,4.486,0,0,1,2.72-.488,4.679,4.679,0,0,1,.2.2,4.445,4.445,0,0,1-3.286-1.3,5.719,5.719,0,0,1-4.619-5.254Zm1.816.215a4.52,4.52,0,0,0,.815,2.822A2.61,2.61,0,0,0,.2-1.279,2.594,2.594,0,0,0,2.383-2.358a4.943,4.943,0,0,0,.811-3.022A4.513,4.513,0,0,0,2.368-8.2,2.623,2.623,0,0,0,.176-9.277,2.594,2.594,0,0,0-1.982-8.213,4.906,4.906,0,0,0-2.8-5.166Zm17.178-.4V0H12.5V-14.219h5.244A5.269,5.269,0,0,1,21.4-13.027a4.039,4.039,0,0,1,1.323,3.154,3.986,3.986,0,0,1-1.294,3.188,5.5,5.5,0,0,1-3.706,1.118Zm0-1.533h3.369a3.369,3.369,0,0,0,2.3-.709,2.593,2.593,0,0,0,.8-2.05,2.679,2.679,0,0,0-.8-2.035,3.156,3.156,0,0,0-2.2-.792H14.375ZM29.941-8.945a5.414,5.414,0,0,0-.889-.068A2.381,2.381,0,0,0,26.641-7.5V0H24.834V-10.566h1.758l.029,1.221a2.813,2.813,0,0,1,2.52-1.416,1.846,1.846,0,0,1,.8.137ZM35.986.2a4.617,4.617,0,0,1-3.5-1.411A5.237,5.237,0,0,1,31.143-4.99v-.332a6.341,6.341,0,0,1,.6-2.808,4.685,4.685,0,0,1,1.68-1.934,4.223,4.223,0,0,1,2.339-.7,3.957,3.957,0,0,1,3.2,1.357,5.877,5.877,0,0,1,1.143,3.887v.752H32.949a3.756,3.756,0,0,0,.913,2.524,2.87,2.87,0,0,0,2.222.962,3.147,3.147,0,0,0,1.621-.391,4.073,4.073,0,0,0,1.162-1.035l1.1.859A4.437,4.437,0,0,1,35.986.2Zm-.225-9.473a2.41,2.41,0,0,0-1.836.8,3.868,3.868,0,0,0-.918,2.231H38.3v-.137a3.441,3.441,0,0,0-.742-2.134A2.269,2.269,0,0,0,35.762-9.277Zm9.795,6.826,2.617-8.115H50.02L46.23,0H44.854L41.025-10.566h1.846ZM53.721,0H51.914V-10.566h1.807ZM51.768-13.369a1.078,1.078,0,0,1,.269-.742,1.008,1.008,0,0,1,.8-.3,1.024,1.024,0,0,1,.8.3,1.067,1.067,0,0,1,.273.742,1.032,1.032,0,0,1-.273.732,1.043,1.043,0,0,1-.8.293,1.026,1.026,0,0,1-.8-.293A1.043,1.043,0,0,1,51.768-13.369Zm11,10.566a1.33,1.33,0,0,0-.552-1.138,5.311,5.311,0,0,0-1.924-.7,9.1,9.1,0,0,1-2.178-.7,3.1,3.1,0,0,1-1.191-.977,2.336,2.336,0,0,1-.386-1.348,2.741,2.741,0,0,1,1.1-2.2,4.291,4.291,0,0,1,2.808-.9,4.415,4.415,0,0,1,2.915.928,2.947,2.947,0,0,1,1.118,2.373H62.656a1.631,1.631,0,0,0-.63-1.279,2.36,2.36,0,0,0-1.587-.537,2.47,2.47,0,0,0-1.543.43,1.353,1.353,0,0,0-.557,1.123,1.1,1.1,0,0,0,.518.986,6.368,6.368,0,0,0,1.87.635,9.744,9.744,0,0,1,2.192.723A3.2,3.2,0,0,1,64.165-4.37a2.485,2.485,0,0,1,.405,1.44A2.7,2.7,0,0,1,63.438-.659,4.752,4.752,0,0,1,60.5.2a5.321,5.321,0,0,1-2.246-.449,3.653,3.653,0,0,1-1.528-1.255,3.025,3.025,0,0,1-.552-1.743h1.807a1.87,1.87,0,0,0,.728,1.44,2.822,2.822,0,0,0,1.792.532,2.913,2.913,0,0,0,1.646-.415A1.275,1.275,0,0,0,62.764-2.8Zm6.611-10.322v2.559h1.973v1.4H69.375v6.561a1.467,1.467,0,0,0,.264.953,1.11,1.11,0,0,0,.9.318,4.374,4.374,0,0,0,.859-.117V0A5.268,5.268,0,0,1,70.01.2a2.25,2.25,0,0,1-1.826-.732,3.147,3.147,0,0,1-.615-2.08V-9.17H65.645v-1.4h1.924v-2.559Zm3.408,7.744a6.241,6.241,0,0,1,.61-2.793,4.553,4.553,0,0,1,1.7-1.914,4.626,4.626,0,0,1,2.485-.674,4.456,4.456,0,0,1,3.491,1.494A5.748,5.748,0,0,1,82.4-5.293v.127A6.3,6.3,0,0,1,81.812-2.4,4.486,4.486,0,0,1,80.122-.488,4.679,4.679,0,0,1,77.6.2,4.445,4.445,0,0,1,74.116-1.3a5.719,5.719,0,0,1-1.333-3.955Zm1.816.215a4.52,4.52,0,0,0,.815,2.822A2.61,2.61,0,0,0,77.6-1.279a2.594,2.594,0,0,0,2.188-1.079A4.943,4.943,0,0,0,80.6-5.381,4.513,4.513,0,0,0,79.771-8.2a2.623,2.623,0,0,0-2.192-1.079A2.594,2.594,0,0,0,75.42-8.213,4.906,4.906,0,0,0,74.6-5.166Z" transform="translate(664 6851)" fill="#12263f"/>
      <path id="Trazado_691703" data-name="Trazado 691703" d="M-52.134-4.512A5.231,5.231,0,0,1-53.8-1.03,5.457,5.457,0,0,1-57.524.2a5.01,5.01,0,0,1-4.038-1.807,7.268,7.268,0,0,1-1.519-4.834V-7.812a8.1,8.1,0,0,1,.708-3.486,5.288,5.288,0,0,1,2.007-2.31,5.588,5.588,0,0,1,3.008-.806,5.138,5.138,0,0,1,3.633,1.265,5.294,5.294,0,0,1,1.592,3.5h-1.885a4.085,4.085,0,0,0-1.06-2.468,3.206,3.206,0,0,0-2.28-.764,3.355,3.355,0,0,0-2.817,1.329A6.1,6.1,0,0,0-61.2-7.769v1.378a6.273,6.273,0,0,0,.967,3.685,3.124,3.124,0,0,0,2.705,1.368,3.608,3.608,0,0,0,2.4-.708,3.929,3.929,0,0,0,1.108-2.466Zm1.8-.869a6.241,6.241,0,0,1,.61-2.793,4.553,4.553,0,0,1,1.7-1.914,4.626,4.626,0,0,1,2.485-.674,4.456,4.456,0,0,1,3.491,1.494,5.748,5.748,0,0,1,1.333,3.975v.127A6.3,6.3,0,0,1-41.309-2.4,4.486,4.486,0,0,1-43-.488,4.679,4.679,0,0,1-45.522.2,4.445,4.445,0,0,1-49-1.3a5.719,5.719,0,0,1-1.333-3.955Zm1.816.215a4.52,4.52,0,0,0,.815,2.822,2.61,2.61,0,0,0,2.183,1.064,2.594,2.594,0,0,0,2.188-1.079,4.943,4.943,0,0,0,.811-3.022A4.513,4.513,0,0,0-43.35-8.2a2.623,2.623,0,0,0-2.192-1.079A2.594,2.594,0,0,0-47.7-8.213,4.906,4.906,0,0,0-48.521-5.166ZM-32.3-2.8a1.33,1.33,0,0,0-.552-1.138,5.311,5.311,0,0,0-1.924-.7,9.1,9.1,0,0,1-2.178-.7,3.1,3.1,0,0,1-1.191-.977,2.336,2.336,0,0,1-.386-1.348,2.741,2.741,0,0,1,1.1-2.2,4.291,4.291,0,0,1,2.808-.9,4.415,4.415,0,0,1,2.915.928,2.947,2.947,0,0,1,1.118,2.373h-1.816a1.631,1.631,0,0,0-.63-1.279,2.36,2.36,0,0,0-1.587-.537,2.47,2.47,0,0,0-1.543.43,1.353,1.353,0,0,0-.557,1.123,1.1,1.1,0,0,0,.518.986,6.368,6.368,0,0,0,1.87.635,9.744,9.744,0,0,1,2.192.723A3.2,3.2,0,0,1-30.9-4.37a2.485,2.485,0,0,1,.405,1.44A2.7,2.7,0,0,1-31.626-.659,4.752,4.752,0,0,1-34.565.2a5.321,5.321,0,0,1-2.246-.449A3.653,3.653,0,0,1-38.34-1.509a3.025,3.025,0,0,1-.552-1.743h1.807a1.87,1.87,0,0,0,.728,1.44,2.822,2.822,0,0,0,1.792.532,2.913,2.913,0,0,0,1.646-.415A1.275,1.275,0,0,0-32.3-2.8Zm6.611-10.322v2.559h1.973v1.4h-1.973v6.561a1.467,1.467,0,0,0,.264.953,1.11,1.11,0,0,0,.9.318,4.374,4.374,0,0,0,.859-.117V0A5.268,5.268,0,0,1-25.054.2,2.25,2.25,0,0,1-26.88-.537a3.147,3.147,0,0,1-.615-2.08V-9.17h-1.924v-1.4H-27.5v-2.559Zm3.408,7.744a6.241,6.241,0,0,1,.61-2.793,4.553,4.553,0,0,1,1.7-1.914,4.626,4.626,0,0,1,2.485-.674,4.456,4.456,0,0,1,3.491,1.494,5.748,5.748,0,0,1,1.333,3.975v.127A6.3,6.3,0,0,1-13.252-2.4,4.486,4.486,0,0,1-14.941-.488,4.679,4.679,0,0,1-17.466.2,4.445,4.445,0,0,1-20.947-1.3,5.719,5.719,0,0,1-22.28-5.254Zm1.816.215a4.52,4.52,0,0,0,.815,2.822,2.61,2.61,0,0,0,2.183,1.064,2.594,2.594,0,0,0,2.188-1.079,4.943,4.943,0,0,0,.811-3.022A4.513,4.513,0,0,0-15.293-8.2a2.623,2.623,0,0,0-2.192-1.079,2.594,2.594,0,0,0-2.158,1.064A4.906,4.906,0,0,0-20.464-5.166Zm23.945,0a6.327,6.327,0,0,1-1.1,3.887A3.537,3.537,0,0,1-.61.2,3.875,3.875,0,0,1-3.638-1.025V4.063H-5.444V-10.566h1.65l.088,1.172A3.722,3.722,0,0,1-.64-10.762,3.6,3.6,0,0,1,2.373-9.326,6.4,6.4,0,0,1,3.481-5.332ZM1.675-5.371A4.669,4.669,0,0,0,.913-8.193a2.454,2.454,0,0,0-2.09-1.035A2.656,2.656,0,0,0-3.638-7.773v5.049a2.661,2.661,0,0,0,2.48,1.445A2.442,2.442,0,0,0,.908-2.31,5.1,5.1,0,0,0,1.675-5.371Zm9.209-3.574A5.414,5.414,0,0,0,10-9.014,2.381,2.381,0,0,0,7.583-7.5V0H5.776V-10.566H7.534l.029,1.221a2.813,2.813,0,0,1,2.52-1.416,1.846,1.846,0,0,1,.8.137ZM16.929.2a4.617,4.617,0,0,1-3.5-1.411A5.237,5.237,0,0,1,12.085-4.99v-.332a6.341,6.341,0,0,1,.6-2.808,4.685,4.685,0,0,1,1.68-1.934,4.223,4.223,0,0,1,2.339-.7,3.957,3.957,0,0,1,3.2,1.357A5.877,5.877,0,0,1,21.05-5.518v.752H13.892A3.756,3.756,0,0,0,14.8-2.241a2.87,2.87,0,0,0,2.222.962,3.147,3.147,0,0,0,1.621-.391A4.073,4.073,0,0,0,19.81-2.705l1.1.859A4.437,4.437,0,0,1,16.929.2ZM16.7-9.277a2.41,2.41,0,0,0-1.836.8A3.868,3.868,0,0,0,13.95-6.25h5.293v-.137A3.441,3.441,0,0,0,18.5-8.521,2.269,2.269,0,0,0,16.7-9.277ZM26.5-2.451l2.617-8.115h1.846L27.173,0H25.8L21.968-10.566h1.846ZM34.663,0H32.856V-10.566h1.807ZM32.71-13.369a1.078,1.078,0,0,1,.269-.742,1.008,1.008,0,0,1,.8-.3,1.024,1.024,0,0,1,.8.3,1.067,1.067,0,0,1,.273.742,1.032,1.032,0,0,1-.273.732,1.043,1.043,0,0,1-.8.293,1.026,1.026,0,0,1-.8-.293A1.043,1.043,0,0,1,32.71-13.369Zm11,10.566a1.33,1.33,0,0,0-.552-1.138,5.311,5.311,0,0,0-1.924-.7,9.1,9.1,0,0,1-2.178-.7,3.1,3.1,0,0,1-1.191-.977,2.336,2.336,0,0,1-.386-1.348,2.741,2.741,0,0,1,1.1-2.2,4.291,4.291,0,0,1,2.808-.9,4.415,4.415,0,0,1,2.915.928,2.947,2.947,0,0,1,1.118,2.373H43.6a1.631,1.631,0,0,0-.63-1.279,2.36,2.36,0,0,0-1.587-.537,2.47,2.47,0,0,0-1.543.43,1.353,1.353,0,0,0-.557,1.123,1.1,1.1,0,0,0,.518.986,6.368,6.368,0,0,0,1.87.635,9.744,9.744,0,0,1,2.192.723A3.2,3.2,0,0,1,45.107-4.37a2.485,2.485,0,0,1,.405,1.44A2.7,2.7,0,0,1,44.38-.659,4.752,4.752,0,0,1,41.44.2a5.321,5.321,0,0,1-2.246-.449,3.653,3.653,0,0,1-1.528-1.255,3.025,3.025,0,0,1-.552-1.743h1.807a1.87,1.87,0,0,0,.728,1.44,2.822,2.822,0,0,0,1.792.532,2.913,2.913,0,0,0,1.646-.415A1.275,1.275,0,0,0,43.706-2.8Zm6.611-10.322v2.559H52.29v1.4H50.317v6.561a1.467,1.467,0,0,0,.264.953,1.11,1.11,0,0,0,.9.318,4.374,4.374,0,0,0,.859-.117V0A5.268,5.268,0,0,1,50.952.2a2.25,2.25,0,0,1-1.826-.732,3.147,3.147,0,0,1-.615-2.08V-9.17H46.587v-1.4h1.924v-2.559Zm3.408,7.744a6.241,6.241,0,0,1,.61-2.793,4.553,4.553,0,0,1,1.7-1.914,4.626,4.626,0,0,1,2.485-.674,4.456,4.456,0,0,1,3.491,1.494,5.748,5.748,0,0,1,1.333,3.975v.127A6.3,6.3,0,0,1,62.754-2.4,4.486,4.486,0,0,1,61.064-.488,4.679,4.679,0,0,1,58.54.2,4.445,4.445,0,0,1,55.059-1.3a5.719,5.719,0,0,1-1.333-3.955Zm1.816.215a4.52,4.52,0,0,0,.815,2.822A2.61,2.61,0,0,0,58.54-1.279a2.594,2.594,0,0,0,2.188-1.079,4.943,4.943,0,0,0,.811-3.022A4.513,4.513,0,0,0,60.713-8.2a2.623,2.623,0,0,0-2.192-1.079,2.594,2.594,0,0,0-2.158,1.064A4.906,4.906,0,0,0,55.542-5.166Z" transform="translate(664 6883)" fill="#12263f"/>
      <path id="Trazado_691339" data-name="Trazado 691339" d="M-8457.126-4878h186" transform="translate(9028.126 11739)" fill="none" stroke="#000" stroke-width="1"/>
    </g>
  </g>
</svg>
