<svg xmlns="http://www.w3.org/2000/svg" width="609.607" height="97.465" viewBox="0 0 609.607 97.465">
  <g id="Grupo_956557" data-name="Grupo 956557" transform="translate(1485.1 -116.912)">
    <path id="Trazado_654769" data-name="Trazado 654769" d="M-695.272,215.055q-223.3-.02-446.592-.013c-.312,0-.625-.006-.937.006-.526.02-.341.432-.34.7s-.187.676.339.7c.351.013.7.006,1.055.006h446.24c.312,0,.627-.024.937.005.455.042.562-.137.606-.588C-693.846,214.64-694.736,215.055-695.272,215.055Z" transform="translate(-181.538 -52.071)"/>
    <path id="Trazado_654770" data-name="Trazado 654770" d="M-1117.954,167.5q109.127.018,218.255.012a2.434,2.434,0,0,1,.468,0c1,.2.9-.5.8-1.054-.136-.73-.779-.332-1.152-.332q-54.622-.034-109.245-.022h-107.135c-.859,0-1.722.045-2.578-.011-1.1-.072-.78.771-.647,1.165C-1119.014,167.778-1118.376,167.5-1117.954,167.5Z" transform="translate(-194.196 -26.074)"/>
    <path id="Trazado_654771" data-name="Trazado 654771" d="M-885.783,272.959q-99.574,0-199.149,0c-.273,0-.548.015-.82,0-.515-.033-.449.333-.417.628s-.227.763.385.774c.312.006.625,0,.938,0h198.914c.273,0,.548-.017.82,0,.386.03.505-.1.563-.511C-884.389,272.707-885.17,272.959-885.783,272.959Z" transform="translate(-211.789 -82.838)"/>
    <path id="Trazado_654772" data-name="Trazado 654772" d="M-496.345,273.95c-.234-.195-.417-.5-.761-.135-.265.283-.563.537-.856.793a.836.836,0,0,1-.866.206c-.37-.14-.334-.5-.312-.8a7.164,7.164,0,0,1,.155-1.035c.365-1.671.773-3.334,1.1-5.013a2.384,2.384,0,0,0-.729-2.547,2.738,2.738,0,0,0-2.891-.132,7.927,7.927,0,0,0-2.465,2.109c-.108-1.165-.437-2.074-1.542-2.33-2.206-.511-3.449.958-4.839,2.57.016-1.111.169-2.108-.875-2.537a2.666,2.666,0,0,0-2.722.6c-.093.071-.215.128-.269.223-.276.487-1.44.633-.8,1.439.719.9.9-.37,1.384-.543.348-.125.63-.538,1.045-.338.43.206.345.658.32,1.042a5.18,5.18,0,0,1-.13.8q-.792,3.529-1.593,7.057c-.056.249-.269.519-.032.75.448.44,2.023-.06,2.162-.682.272-1.215.54-2.431.782-3.652a8.227,8.227,0,0,1,2.306-4.5c.562-.539,1.2-1.154,2.051-.69.81.44.545,1.284.521,2.006a2.581,2.581,0,0,1-.1.456c-.443,2.013-.9,4.023-1.311,6.044-.068.338-.678,1.016.2,1.033.6.012,1.593.651,1.833-.672.3-1.644.664-3.278,1.068-4.9a6.948,6.948,0,0,1,2.229-3.494c.5-.445,1.081-.872,1.789-.488.666.362.593,1.053.507,1.665-.1.73-.293,1.447-.449,2.169a20.73,20.73,0,0,0-.8,3.879c-.035,1.61.94,2.343,2.509,1.95a5.541,5.541,0,0,0,2.373-1.636C-496.1,274.381-496.065,274.183-496.345,273.95Z" transform="translate(-514.947 -78.586)"/>
    <path id="Trazado_654773" data-name="Trazado 654773" d="M-505.562,160.677c.2.239.413.343.67.053a5.4,5.4,0,0,1,.582-.576c.325-.271.678-.664,1.122-.458.53.245.339.808.327,1.26a3.052,3.052,0,0,1-.109.572c-.512,2.276-1.046,4.549-1.514,6.834-.064.312-.739,1,.193,1.018.626.014,1.617.594,1.855-.682s.532-2.511.792-3.769a8.182,8.182,0,0,1,2.358-4.472c.538-.5,1.15-1.058,1.965-.637.782.4.572,1.194.553,1.88a3.109,3.109,0,0,1-.106.573c-.442,2.014-.905,4.023-1.311,6.044-.068.342-.683,1.005.168,1.056.642.039,1.659.6,1.888-.762.27-1.608.626-3.208,1.033-4.788a6.757,6.757,0,0,1,2.585-3.784,1.3,1.3,0,0,1,1.42-.243,1.176,1.176,0,0,1,.549,1.315,24.086,24.086,0,0,1-.47,2.518,18.418,18.418,0,0,0-.8,4.111A1.7,1.7,0,0,0-489.9,169.6a4.883,4.883,0,0,0,3.035-1.82c.224-.227.122-.375-.043-.584-.485-.618-.76-.145-1.1.166-.417.385-.845,1.012-1.473.615-.532-.337-.194-1-.166-1.524a2.277,2.277,0,0,1,.1-.336c.371-1.67.825-3.328,1.087-5.015.358-2.3-1.34-3.54-3.5-2.646a5.887,5.887,0,0,0-1.947,1.464c-.192.2-.262.584-.685.516a2,2,0,0,0-1.48-2.131c-2.209-.533-3.46.93-4.812,2.513-.065-2.185-.654-2.859-2.161-2.593a5.232,5.232,0,0,0-2.676,1.789C-506.041,160.327-505.724,160.484-505.562,160.677Z" transform="translate(-519.907 -21.901)"/>
    <path id="Trazado_654774" data-name="Trazado 654774" d="M-1309.233,197.558q-1.639,0-3.28,0c-.205,0-.407.038-.422.284-.008.136.045.38.119.4,1.447.4.865,1.494.708,2.3-.561,2.9-1.223,5.775-1.864,8.739a5.927,5.927,0,0,1-.309-.648c-1.131-3.39-2.246-6.786-3.4-10.169-.118-.347-.052-.922-.7-.915-1.015.011-2.031,0-3.046,0-.208,0-.4.051-.4.3,0,.136.063.373.139.391,1.42.342.878,1.448.727,2.2-.683,3.392-1.479,6.762-2.241,10.138-.18.8-.329,1.63-1.25,1.96a.427.427,0,0,0-.261.471c0,.273.226.259.419.259,1.093,0,2.187,0,3.28,0a.371.371,0,0,0,.427-.293c.043-.159.084-.334-.106-.388-1.4-.4-.914-1.43-.739-2.293.666-3.3,1.378-6.593,2.073-9.893.23.111.26.353.332.569,1.259,3.8,2.539,7.589,3.759,11.4.231.72.565.9,1.3.933.851.035.827-.5.94-1,.9-4.024,1.779-8.05,2.688-12.071.177-.782.287-1.647,1.247-1.952a.452.452,0,0,0,.288-.464C-1308.8,197.563-1309.038,197.559-1309.233,197.558Z" transform="translate(-85.153 -42.816)"/>
    <path id="Trazado_654775" data-name="Trazado 654775" d="M-1083.773,239.6c-.172.767-.352,1.541-1.217,1.858a.415.415,0,0,0-.262.464c.008.273.225.266.419.266,1.328,0,2.657,0,3.985,0a.4.4,0,0,0,.423-.311c.122-.352-.126-.375-.359-.429-.819-.187-.886-.79-.763-1.453q.321-1.721.7-3.43c.314-1.42.629-1.586,2.06-1.263a1.707,1.707,0,0,1,1.326,1.459c.368,1.551.719,3.106,1.089,4.657.085.358.083.8.667.774.819-.029,1.641,0,2.461-.009.185,0,.4.02.448-.246.033-.195.067-.4-.184-.476-1.467-.427-1.519-1.735-1.788-2.89-.291-1.248-.415-2.556-1.624-3.591a7.08,7.08,0,0,0,3.017-1.751,4.357,4.357,0,0,0,1.022-4.345,3.049,3.049,0,0,0-2.7-2.265,58.223,58.223,0,0,0-6.9-.146c-.194,0-.413.026-.421.283,0,.139.048.387.12.4,1.5.366.884,1.515.728,2.293C-1082.211,232.847-1083.011,236.218-1083.773,239.6Zm3.744-6.818c.312-1.444.655-2.883.943-4.332a.879.879,0,0,1,.993-.841c2.426-.078,3.483.516,3.637,2.151a3.854,3.854,0,0,1-3.311,4.242c-.348.046-.7.05-1.052.074C-1080.331,234.2-1080.336,234.2-1080.029,232.778Z" transform="translate(-212.291 -58.152)"/>
    <path id="Trazado_654776" data-name="Trazado 654776" d="M-1117.239,134.443c1.25.006,2.5,0,3.75.007.3,0,.547-.028.6-.388s-.256-.307-.453-.366c-.734-.22-.805-.785-.692-1.4q.317-1.722.694-3.432c.31-1.4,1.015-1.749,2.372-1.213a1.8,1.8,0,0,1,1.043,1.448c.366,1.551.746,3.1,1.082,4.658.109.5.306.735.852.7.74-.043,1.484-.008,2.226-.013.228,0,.479.023.5-.323.016-.223-.038-.366-.271-.433-1.186-.343-1.378-1.365-1.614-2.36-.338-1.423-.393-2.959-1.669-4.056a8.336,8.336,0,0,0,2.933-1.752,4.376,4.376,0,0,0,1.027-4.449,3.03,3.03,0,0,0-2.87-2.222c-2.218-.14-4.449-.091-6.675-.116-.185,0-.422-.017-.452.245-.016.139.023.4.084.414,1.464.357.927,1.485.765,2.282-.7,3.432-1.5,6.842-2.268,10.258-.165.728-.354,1.461-1.165,1.766a.424.424,0,0,0-.279.553C-1117.66,134.513-1117.417,134.442-1117.239,134.443Zm4.717-9.337c.318-1.483.655-2.962.968-4.446.107-.51.291-.884.911-.775a.542.542,0,0,0,.117,0c2.428-.1,3.461.531,3.591,2.184a3.856,3.856,0,0,1-3.247,4.187c-.385.056-.778.057-1.168.083C-1112.806,126.456-1112.812,126.455-1112.522,125.106Z" transform="translate(-195.045 -0.966)"/>
    <path id="Trazado_654777" data-name="Trazado 654777" d="M-645.42,163.855c-.476.377-.345.711-.136,1.1.306.567.609.067.837-.063a11.963,11.963,0,0,0,4.5-4.795c2.441-4.408,3.2-9.216,3.261-14.264a30.238,30.238,0,0,0-2.721-13.166,13.137,13.137,0,0,0-4.957-5.758c-.257-.155-.582-.676-.94-.061a.711.711,0,0,0,.2,1.083c3.071,2.388,4.357,5.8,5.187,9.4a38.393,38.393,0,0,1,.454,14.628C-640.432,156.456-641.585,160.822-645.42,163.855Z" transform="translate(-445.638 -5.119)"/>
    <path id="Trazado_654778" data-name="Trazado 654778" d="M-654.566,234.749c-.269-.166-.617-.742-1.037-.113-.341.511-.135.824.3,1.154a13.242,13.242,0,0,1,4.37,6.752,37.2,37.2,0,0,1,1.121,17.552c-.691,4.417-1.921,8.69-5.726,11.629-.466.36-.2.7-.038,1.018.292.567.6.062.834-.069a11.955,11.955,0,0,0,4.5-4.8c2.44-4.409,3.193-9.218,3.256-14.12a30.414,30.414,0,0,0-2.721-13.312A13.222,13.222,0,0,0-654.566,234.749Z" transform="translate(-440.3 -62.351)"/>
    <path id="Trazado_654779" data-name="Trazado 654779" d="M-1131.278,164.867c.26.152.569.69.922.061.237-.421.276-.738-.187-1.084a13.35,13.35,0,0,1-4.562-7.159,37.955,37.955,0,0,1-.752-18.722c.757-3.874,2.082-7.515,5.368-10.071.412-.32.356-.613.145-1-.34-.622-.672-.141-.944.021a12.2,12.2,0,0,0-4.356,4.636,28.771,28.771,0,0,0-3.319,14.1,30.607,30.607,0,0,0,2.727,13.454A12.835,12.835,0,0,0-1131.278,164.867Z" transform="translate(-183.774 -5.135)"/>
    <path id="Trazado_654780" data-name="Trazado 654780" d="M-1098.523,271.649c-3.174-2.422-4.423-5.924-5.262-9.615a38.577,38.577,0,0,1-.422-14.53c.69-4.468,1.882-8.787,5.671-11.8.466-.371.388-.7.143-1.093-.315-.5-.617-.084-.873.066a12.179,12.179,0,0,0-4.431,4.719,28.8,28.8,0,0,0-3.282,14.029,30.743,30.743,0,0,0,2.709,13.425,12.907,12.907,0,0,0,5.039,5.84c.231.134.534.621.841.059C-1098.179,272.357-1098.036,272.02-1098.523,271.649Z" transform="translate(-200.755 -62.36)"/>
    <path id="Trazado_654781" data-name="Trazado 654781" d="M-1481.75,197.563c-.183,0-.422-.023-.455.241-.018.138.02.4.079.415,1.46.355.932,1.48.77,2.279-.7,3.468-1.508,6.915-2.29,10.367a2.114,2.114,0,0,1-.92,1.559c-.27.149-.643.238-.5.642s.539.2.813.2c2.069.019,4.139.01,6.208.01,3.329,0,3.336,0,3.991-3.234.05-.248.383-.648-.078-.8-.381-.121-.857-.231-1.141.262-.117.2-.25.395-.348.606a3.117,3.117,0,0,1-3.449,2.016,8.22,8.22,0,0,0-1.755,0c-.77.083-.819-.274-.672-.874.3-1.209.561-2.425.84-3.637.476-2.07.475-2.047,2.633-1.944.761.036,1.18.309,1.178,1.1,0,.364-.024.667.527.668.508,0,.656-.2.748-.647.213-1.027.483-2.043.712-3.067.06-.267.358-.652-.088-.784a.878.878,0,0,0-1.069.218c-.155.223-.284.468-.458.675-.487.581-2.591,1.125-3.157.676-.7-.559.107-1.264.064-1.92a3.545,3.545,0,0,1,.183-.911c.637-2.99.637-2.99,3.683-2.978,1.813.007,1.855.022,2.124,1.861.062.421.135.637.607.611.413-.023.74-.017.832-.568.165-.986.416-1.958.655-3.048C-1474.967,197.56-1478.358,197.559-1481.75,197.563Z" transform="translate(0 -42.819)"/>
    <path id="Trazado_654782" data-name="Trazado 654782" d="M-1342.716,197.546c-1.561.014-3.124.005-4.685.006-1.6,0-3.2,0-4.8,0-.217,0-.5-.064-.558.258-.023.134.029.4.092.411,1.477.356.914,1.492.755,2.281-.7,3.469-1.5,6.916-2.288,10.367a2.07,2.07,0,0,1-.932,1.55c-.279.147-.623.245-.485.651.122.359.47.186.71.188,2.108.015,4.217.008,6.325.008,3.324,0,3.331,0,3.978-3.251.048-.245.382-.641-.1-.786-.349-.105-.779-.2-1.069.188a2.773,2.773,0,0,0-.284.508,3.354,3.354,0,0,1-3.822,2.193,5.11,5.11,0,0,0-1.286,0c-.825.1-1.1-.139-.871-1,.379-1.427.719-2.871.961-4.326.153-.917.545-1.278,1.458-1.123a4.293,4.293,0,0,0,.935.009c.788-.041,1.3.232,1.277,1.105-.009.388.015.672.546.645.406-.02.615-.094.7-.546.212-1.067.5-2.118.743-3.179.06-.266.339-.642-.11-.773a.892.892,0,0,0-.986.15c-.176.2-.291.46-.46.672-.511.645-2.652,1.23-3.237.744-.675-.561.121-1.27.08-1.929a3.214,3.214,0,0,1,.165-.8c.644-3.1.644-3.1,3.833-3.077,1.593.012,1.78.159,1.988,1.761.055.422.044.758.627.714.425-.031.735-.048.817-.588a17.493,17.493,0,0,1,.525-2.391C-1341.993,197.6-1342.239,197.542-1342.716,197.546Z" transform="translate(-68.728 -42.811)"/>
    <path id="Trazado_654783" data-name="Trazado 654783" d="M-903.72,229.774c-.108.642-.263.876-1.021.615a4.84,4.84,0,0,0-4.367.529c-2.5,1.621-3.986,6.062-2.969,8.864a2.449,2.449,0,0,0,2.932,1.684c1.624-.246,2.5-1.471,3.5-2.591-.058,2.377,1,3.24,2.868,2.38a2.711,2.711,0,0,0,.962-.643c.364-.441,1.406-.7.911-1.415-.716-1.038-.973.3-1.456.5-.355.152-.661.473-1.067.26-.383-.2-.307-.617-.252-.943.179-1.072.38-2.142.615-3.2.744-3.378,1.507-6.752,2.263-10.127.08-.358.339-.8-.372-.78-.936.026-1.872.055-2.808.08-.215.006-.365.066-.4.314-.031.222.011.39.253.425,1.258.182.994,1.082.866,1.879C-903.38,228.334-903.6,229.046-903.72,229.774Zm-.931,3.451a9.415,9.415,0,0,1-2.336,5.708c-.634.68-1.339,1.357-2.31.968-.95-.38-.828-1.387-.908-2.21a9.205,9.205,0,0,1,1.8-5.332,3.234,3.234,0,0,1,1.27-1C-905.553,230.718-904.477,231.537-904.651,233.225Z" transform="translate(-304.063 -57.338)"/>
    <path id="Trazado_654784" data-name="Trazado 654784" d="M-941.592,133.569c1.619-.251,2.479-1.482,3.518-2.631-.055,1.02-.246,2.047.824,2.538a2.626,2.626,0,0,0,2.81-.62c.308-.237.587-.511.871-.778s.6-.466.141-.914-.647-.089-.928.164c-.448.4-.881,1.115-1.555.705-.569-.347-.183-1.073-.18-1.633a2.271,2.271,0,0,1,.1-.454q1.127-5.065,2.252-10.13c.2-.893.886-2.051.41-2.617-.5-.6-1.763-.064-2.692-.112-.116-.006-.234.008-.351.008-.246,0-.453.021-.5.344s.159.391.4.429c.862.137.907.765.789,1.413-.208,1.142-.476,2.274-.72,3.414-2.493-.724-3.912-.591-5.4.48a8.637,8.637,0,0,0-2.775,8.63A2.442,2.442,0,0,0-941.592,133.569Zm.742-9.128a2.92,2.92,0,0,1,1.732-1.1c1.255-.237,2.07.339,2.008,1.561a9.3,9.3,0,0,1-2.378,6.164c-.64.679-1.354,1.344-2.318.925-.927-.4-.8-1.407-.873-2.23A9.117,9.117,0,0,1-940.85,124.442Z" transform="translate(-286.826 -0.001)"/>
    <path id="Trazado_654785" data-name="Trazado 654785" d="M-698.7,133.563c1.575-.252,2.439-1.422,3.515-2.659-.08,1.036-.241,2.017.723,2.529a2.534,2.534,0,0,0,2.82-.516,12.655,12.655,0,0,0,.963-.849c.295-.268.582-.488.115-.914-.393-.359-.564-.161-.846.1-.465.429-.934,1.237-1.629.764-.591-.4-.178-1.222-.128-1.862a1.741,1.741,0,0,1,.061-.225q1.127-5.065,2.251-10.13c.2-.89.884-2.047.4-2.609-.51-.586-1.767-.061-2.7-.1-.155-.008-.312.012-.468.012-.24,0-.33.135-.362.355a.305.305,0,0,0,.3.394c1.1.145.992.944.858,1.681-.194,1.065-.468,2.116-.708,3.177-2.254-.7-3.691-.616-5.111.28-2.545,1.607-4.073,6.138-3.017,8.947A2.451,2.451,0,0,0-698.7,133.563Zm.7-9.095a3.234,3.234,0,0,1,1.271-1c1.578-.647,2.654.173,2.479,1.861a9.414,9.414,0,0,1-2.336,5.708c-.635.68-1.339,1.357-2.31.969-.951-.38-.828-1.387-.908-2.21A9.2,9.2,0,0,1-698,124.468Z" transform="translate(-415.771 0)"/>
    <path id="Trazado_654786" data-name="Trazado 654786" d="M-236.428,163.63c1.624-.248,2.489-1.482,3.556-2.66-.032.306-.061.492-.069.679-.067,1.681.945,2.437,2.558,1.905a5.655,5.655,0,0,0,2.069-1.485c.279-.267.457-.47.074-.834-.357-.34-.544-.245-.849.051-.455.44-.92,1.24-1.623.8-.629-.392-.191-1.211-.162-1.845a1.434,1.434,0,0,1,.061-.226q1.35-6.03,2.688-12.063c.073-.33.488-.894-.357-.878-.936.017-1.873.054-2.808.078-.222.006-.358.082-.39.326s.031.385.267.417c1.178.157,1,1,.874,1.773-.134.8-.366,1.592-.518,2.393-.1.544-.2.751-.879.516a4.917,4.917,0,0,0-4.478.512c-2.5,1.631-3.979,6.075-2.956,8.869A2.449,2.449,0,0,0-236.428,163.63Zm.782-9.164a2.887,2.887,0,0,1,1.861-1.1c1.181-.162,1.928.448,1.857,1.636a9.347,9.347,0,0,1-2.408,6.153c-.617.649-1.3,1.268-2.223.925-.973-.363-.852-1.367-.942-2.182A9.14,9.14,0,0,1-235.646,154.465Z" transform="translate(-661.221 -16.015)"/>
    <path id="Trazado_654787" data-name="Trazado 654787" d="M-843.65,247.7c.1-.558.195-.84.954-.575a4.7,4.7,0,0,0,5.189-1.12,8.34,8.34,0,0,0,2.315-7.731c-.4-2.1-2.175-2.846-4.095-1.854a8.794,8.794,0,0,0-2.436,2.231c-.084-2.174-.522-2.738-1.926-2.624-1.281.1-2.068,1-2.909,1.812-.181.175-.137.32-.008.5.466.659.787.283,1.171-.112s.805-.958,1.365-.69c.649.311.31,1.035.3,1.6a1.847,1.847,0,0,1-.086.339q-1.11,4.955-2.216,9.911c-.657,2.965-.651,2.967,2.426,2.783.078,0,.156,0,.234,0,.2,0,.381-.014.43-.272.055-.292-.066-.424-.343-.484-.974-.21-.907-.923-.773-1.65C-843.932,249.073-843.779,248.388-843.65,247.7Zm3.579-9.41a1.829,1.829,0,0,1,1.864-.693c.841.261.93,1,.95,1.7a8.7,8.7,0,0,1-1.7,5.908,3.1,3.1,0,0,1-1.166.942c-1.555.7-2.643-.005-2.609-1.868A9.055,9.055,0,0,1-840.071,238.289Z" transform="translate(-338.957 -63.22)"/>
    <path id="Trazado_654788" data-name="Trazado 654788" d="M-462.546,160.354c.415-.325.792-.933,1.375-.642.6.3.29.971.288,1.493a2.271,2.271,0,0,1-.106.453q-1.107,4.946-2.211,9.893c-.688,3.109-.683,3.11,2.537,2.775.039,0,.078,0,.117,0,.194-.006.382-.006.434-.264.058-.287-.049-.43-.332-.489-.97-.2-.92-.91-.786-1.639s.3-1.446.43-2.173c.1-.573.289-.693.915-.481a4.772,4.772,0,0,0,5.273-1.172,8.411,8.411,0,0,0,2.32-7.4c-.364-2.449-2.422-3.267-4.516-1.926a11.7,11.7,0,0,0-2.142,2.079c.018-1.088.182-2.038-.779-2.5a2.531,2.531,0,0,0-2.721.493,3.589,3.589,0,0,0-.789.687c-.22.3-.971.428-.389,1.072S-462.863,160.6-462.546,160.354Zm2.655,6.3a8.867,8.867,0,0,1,2.143-5.66c.645-.72,1.312-1.639,2.426-1.2,1.2.475.844,1.673.931,2.414a8.914,8.914,0,0,1-1.77,5.2,3.108,3.108,0,0,1-1.295.965C-458.937,168.931-459.972,168.23-459.891,166.658Z" transform="translate(-542.215 -21.888)"/>
    <path id="Trazado_654789" data-name="Trazado 654789" d="M-890.626,290.507a11.741,11.741,0,0,0-2.136,2.08c.023-1.1.179-2.053-.785-2.509a2.54,2.54,0,0,0-2.72.5,3.707,3.707,0,0,0-.789.688c-.223.3-.966.435-.376,1.073s.765-.03,1.082-.272c.417-.319.79-.932,1.376-.63s.282.975.28,1.5a2.255,2.255,0,0,1-.107.453q-1.107,4.946-2.21,9.892c-.689,3.109-.679,3.115,2.547,2.767.038,0,.078,0,.117,0,.2,0,.38-.015.428-.272.055-.291-.064-.424-.341-.484-.971-.208-.909-.918-.776-1.645.126-.688.276-1.371.409-2.058.1-.536.17-.862.944-.59a4.73,4.73,0,0,0,5.269-1.177,8.411,8.411,0,0,0,2.311-7.4C-886.473,289.972-888.534,289.161-890.626,290.507Zm.677,8.591a3.13,3.13,0,0,1-1.067.886c-1.583.78-2.735.064-2.693-1.843a9.048,9.048,0,0,1,2.676-5.986,1.8,1.8,0,0,1,1.869-.672c.833.275.914,1.018.932,1.712A8.7,8.7,0,0,1-889.949,299.1Z" transform="translate(-311.892 -91.824)" fill="#010101"/>
    <path id="Trazado_654790" data-name="Trazado 654790" d="M-466.561,265.731a20.557,20.557,0,0,0-1.846,1.8c-.074-2.179-.713-2.875-2.264-2.534a5.452,5.452,0,0,0-2.558,1.764c-.317.313-.022.473.146.665.2.226.394.359.671.074a5.887,5.887,0,0,1,.948-.861c.683-.45,1.149-.273,1.1.59a13.568,13.568,0,0,1-.336,2.182c-.864,3.862-1.748,7.72-2.65,11.686,1.11,0,2.119,0,3.128,0,.251,0,.566.1.611-.33.034-.326-.172-.381-.41-.438-.82-.193-.863-.8-.746-1.46.142-.8.321-1.6.471-2.4.1-.536.289-.63.859-.435a4.944,4.944,0,0,0,5.836-1.716,8.757,8.757,0,0,0,1.858-6.564C-462.039,265.006-464.351,264.057-466.561,265.731Zm.88,8.455a3,3,0,0,1-1.188.916c-1.516.636-2.564-.06-2.544-1.868a9.025,9.025,0,0,1,2.718-6.069,1.748,1.748,0,0,1,1.88-.621c.758.282.853.972.877,1.632A8.71,8.71,0,0,1-465.681,274.186Z" transform="translate(-537.157 -78.572)"/>
    <path id="Trazado_654791" data-name="Trazado 654791" d="M-400.07,265.709a11.518,11.518,0,0,0-1.89,1.933c0-.44.006-.658,0-.875a1.661,1.661,0,0,0-2.32-1.753,5.7,5.7,0,0,0-2.452,1.729c-.3.3-.083.472.112.667s.379.412.669.108a7.187,7.187,0,0,1,.852-.8c.267-.2.561-.465.943-.232.316.193.31.52.285.833a7.754,7.754,0,0,1-.133,1.037c-.458,2.086-.929,4.17-1.4,6.255-.478,2.133-.957,4.267-1.454,6.484,1.182,0,2.193,0,3.2,0,.224,0,.473.043.518-.3.04-.313-.13-.4-.383-.457-.817-.178-.894-.771-.775-1.441.142-.8.315-1.6.473-2.4.1-.486.229-.694.841-.474a4.8,4.8,0,0,0,5.532-1.334,8.542,8.542,0,0,0,2.166-7.022C-395.6,264.987-397.869,264.11-400.07,265.709Zm.869,8.46a3.423,3.423,0,0,1-.967.823c-1.59.876-2.815.124-2.761-1.818a9.035,9.035,0,0,1,2.7-5.993,1.769,1.769,0,0,1,1.877-.638c.766.273.865.961.89,1.621A8.565,8.565,0,0,1-399.2,274.169Z" transform="translate(-572.457 -78.577)"/>
    <path id="Trazado_654792" data-name="Trazado 654792" d="M-1227.293,212.42c-1.643-.917-1.188-2.5-1.3-3.858-.3-3.573-.485-7.154-.725-10.732-.019-.276.13-.69-.379-.689-.783,0-1.5-.168-2.051.82-2.2,3.982-4.519,7.9-6.822,11.827a5.288,5.288,0,0,1-2.148,2.542.44.44,0,0,0-.269.473c.045.348.345.238.549.24,1.25.01,2.5.008,3.749,0,.22,0,.48.047.558-.271.068-.28-.055-.426-.309-.527-.936-.372-.892-1.1-.59-1.843.293-.716.712-1.38,1.032-2.086.181-.4.475-.441.847-.437,1.211.011,2.421,0,3.632.008.257,0,.529-.072.692.271a4.283,4.283,0,0,1-1.065,4.159.5.5,0,0,0-.24.475c.037.352.333.248.541.252.624.012,1.25,0,1.874,0,.664,0,1.328-.006,1.991,0C-1227.226,213.056-1226.992,212.588-1227.293,212.42Zm-4.275-5.683c-1.126-.012-2.253,0-3.575,0l3.908-6.9c.107,2.31.186,4.339.3,6.366C-1230.9,206.731-1231.179,206.741-1231.568,206.737Z" transform="translate(-129.605 -42.591)"/>
    <path id="Trazado_654793" data-name="Trazado 654793" d="M-1450.461,197.542c-.273,0-.668-.163-.757.3-.024.122.057.372.134.391,1.482.381.868,1.522.713,2.3-.68,3.39-1.479,6.757-2.239,10.13-.173.766-.35,1.54-1.212,1.858a.42.42,0,0,0-.268.46c0,.277.216.273.412.273,1.327,0,2.653-.006,3.98.005.305,0,.413-.164.458-.413.053-.3-.19-.285-.365-.323-.825-.181-.9-.781-.771-1.442.3-1.525.649-3.04.939-4.566.089-.473.282-.672.767-.634a9.891,9.891,0,0,0,1.287,0c.887-.048,1.443.226,1.368,1.242-.024.328-.091.71.475.738a.713.713,0,0,0,.865-.684c.23-1.182.52-2.352.774-3.529.051-.236.338-.568-.036-.7a.934.934,0,0,0-1.088.156c-.2.235-.3.546-.477.8a3.61,3.61,0,0,1-3.218.826c-.36-.18-.214-.461-.166-.7.173-.877.362-1.751.559-2.622.62-2.738.623-2.738,3.409-2.726,1.821.008,1.856.021,2.116,1.849.059.417.147.647.616.622.4-.023.738.015.83-.554.161-.991.426-1.964.653-2.976a3.586,3.586,0,0,0-.511-.081Q-1445.837,197.531-1450.461,197.542Z" transform="translate(-16.464 -42.794)" fill="#010101"/>
    <path id="Trazado_654794" data-name="Trazado 654794" d="M-801.134,194.388a5.076,5.076,0,0,0,1.983-1.4c.258-.259.637-.453.168-.916-.444-.439-.637-.141-.931.133-.44.41-.886,1.134-1.547.726-.605-.372-.2-1.139-.185-1.736a1.791,1.791,0,0,1,.083-.34q.78-3.412,1.553-6.826c.054-.241.318-.521-.013-.736a.727.727,0,0,0-.97.026c-.5.506-.964.324-1.552.127a5.106,5.106,0,0,0-4.6.47c-2.5,1.621-3.992,6.064-2.975,8.869a2.448,2.448,0,0,0,2.934,1.684c1.626-.246,2.5-1.474,3.562-2.66-.029.3-.055.486-.062.669C-803.756,194.159-802.755,194.911-801.134,194.388Zm-3.95-2.408c-.6.652-1.3,1.282-2.226.934-.974-.366-.851-1.373-.941-2.2a9.142,9.142,0,0,1,1.8-5.345,3.2,3.2,0,0,1,1.382-1.04c1.514-.546,2.517.134,2.426,1.73A9.243,9.243,0,0,1-805.084,191.98Z" transform="translate(-358.194 -35.145)" fill="#010101"/>
    <path id="Trazado_654795" data-name="Trazado 654795" d="M-931.476,243.639q.764-3.356,1.522-6.713c.061-.273.347-.6-.1-.8a.729.729,0,0,0-.876.072c-.489.5-.947.349-1.549.144a5.059,5.059,0,0,0-4.7.525c-2.448,1.663-3.89,6.023-2.893,8.795a2.448,2.448,0,0,0,2.926,1.7c1.626-.244,2.5-1.464,3.568-2.661-.026.3-.048.479-.056.656-.071,1.692.919,2.445,2.541,1.929a4.983,4.983,0,0,0,1.985-1.4c.25-.253.658-.444.185-.915-.431-.43-.63-.173-.932.115-.435.416-.881,1.135-1.545.741-.619-.368-.208-1.135-.195-1.73A2.413,2.413,0,0,1-931.476,243.639Zm-1.111-4.7a9.252,9.252,0,0,1-2.352,5.836c-.612.684-1.32,1.392-2.3,1.029-1.032-.382-.865-1.442-.952-2.277a9.129,9.129,0,0,1,1.788-5.255,3.227,3.227,0,0,1,1.378-1.046C-933.513,236.671-932.5,237.348-932.587,238.938Z" transform="translate(-289.205 -63.225)" fill="#010101"/>
    <path id="Trazado_654796" data-name="Trazado 654796" d="M-969.673,139.592c1.624-.236,2.524-1.431,3.61-2.691-.1,1.079-.234,2.05.743,2.553a2.52,2.52,0,0,0,2.727-.477,4.56,4.56,0,0,0,.877-.767c.22-.265.854-.409.327-.987-.553-.607-.77-.043-1.088.232-.4.35-.8.923-1.388.621-.6-.31-.249-.975-.255-1.489a3.028,3.028,0,0,1,.139-.684c.508-2.237,1.021-4.474,1.521-6.713.061-.272.36-.6-.055-.823a.76.76,0,0,0-.973.1c-.463.494-.9.289-1.448.1a5.129,5.129,0,0,0-4.506.371c-2.607,1.583-4.189,6.179-3.1,9.018A2.46,2.46,0,0,0-969.673,139.592Zm.759-9.074a3.381,3.381,0,0,1,1.159-.96c1.6-.763,2.787-.04,2.671,1.7a9.26,9.26,0,0,1-2.335,5.725c-.638.713-1.373,1.457-2.4,1.014-.926-.4-.8-1.414-.867-2.243A9.114,9.114,0,0,1-968.914,130.518Z" transform="translate(-271.947 -6.006)" fill="#010101"/>
    <path id="Trazado_654797" data-name="Trazado 654797" d="M-873.67,139.582c1.625-.244,2.5-1.463,3.6-2.7-.149,1.1-.241,2.014.644,2.529a2.428,2.428,0,0,0,2.729-.39,8.454,8.454,0,0,0,1.06-.916c.254-.246.662-.441.189-.913-.429-.428-.629-.179-.932.112-.434.417-.88,1.136-1.545.743-.622-.367-.209-1.135-.2-1.729a2.432,2.432,0,0,1,.113-.452q.764-3.356,1.522-6.713c.061-.273.348-.6-.1-.8a.728.728,0,0,0-.876.071c-.488.495-.946.351-1.549.145a5.057,5.057,0,0,0-4.7.523c-2.448,1.662-3.89,6.022-2.9,8.794A2.449,2.449,0,0,0-873.67,139.582Zm.74-9.086a3.229,3.229,0,0,1,1.378-1.045c1.512-.553,2.522.124,2.438,1.714A9.253,9.253,0,0,1-871.466,137c-.612.684-1.32,1.391-2.3,1.027-1.031-.382-.865-1.442-.951-2.278A9.132,9.132,0,0,1-872.93,130.5Z" transform="translate(-322.904 -6.004)" fill="#010101"/>
    <path id="Trazado_654798" data-name="Trazado 654798" d="M-807.139,139.564c1.576-.256,2.431-1.439,3.5-2.656-.094,1.061-.235,2.033.736,2.54a2.513,2.513,0,0,0,2.728-.468,4.487,4.487,0,0,0,.877-.767c.219-.265.856-.407.341-.987-.54-.608-.768-.066-1.089.218-.4.356-.8.925-1.386.633-.614-.3-.255-.972-.264-1.484a3.01,3.01,0,0,1,.138-.685c.508-2.237,1.023-4.474,1.522-6.713.06-.271.366-.6-.045-.827a.757.757,0,0,0-.973.094c-.461.482-.892.306-1.448.113a5.11,5.11,0,0,0-4.506.362c-2.609,1.58-4.194,6.165-3.109,9.014A2.457,2.457,0,0,0-807.139,139.564Zm.659-9.053a3.375,3.375,0,0,1,1.161-.958c1.6-.76,2.783-.033,2.666,1.711a9.266,9.266,0,0,1-2.339,5.723c-.639.712-1.376,1.455-2.4,1.006-.923-.4-.795-1.418-.861-2.247A9.1,9.1,0,0,1-806.48,130.511Z" transform="translate(-358.186 -6.005)" fill="#010101"/>
    <path id="Trazado_654799" data-name="Trazado 654799" d="M-726.729,139.583c1.625-.245,2.5-1.468,3.566-2.661-.027.3-.051.481-.058.66-.07,1.69.924,2.443,2.545,1.924a5.016,5.016,0,0,0,1.984-1.4c.253-.255.651-.447.18-.915-.435-.432-.633-.163-.932.121-.437.414-.883,1.135-1.546.736-.615-.369-.206-1.137-.191-1.732a2.448,2.448,0,0,1,.113-.452q.764-3.356,1.522-6.713c.061-.273.346-.6-.1-.8a.728.728,0,0,0-.876.076c-.49.506-.956.335-1.549.137a5.082,5.082,0,0,0-4.7.531c-2.447,1.665-3.887,6.028-2.889,8.8A2.448,2.448,0,0,0-726.729,139.583Zm.773-9.133a3.282,3.282,0,0,1,1.181-.934c1.564-.695,2.7.025,2.6,1.714a9.256,9.256,0,0,1-2.394,5.819c-.622.682-1.34,1.364-2.316.963-.951-.391-.8-1.407-.9-2.16A9.17,9.17,0,0,1-725.956,130.45Z" transform="translate(-400.916 -6.007)" fill="#010101"/>
    <path id="Trazado_654800" data-name="Trazado 654800" d="M-575.058,152.589c.372.088.867.243,1.128-.293.153-.314.326-.618.481-.932a2.716,2.716,0,0,1,2.849-1.6c.651.034.783.2.644.813-.853,3.752-1.678,7.51-2.516,11.265-.173.774-.379,1.533-1.281,1.787a.452.452,0,0,0-.319.437c-.027.189.08.286.265.286,1.482,0,2.965,0,4.447-.026.1,0,.226-.188.279-.314a.237.237,0,0,0-.176-.351c-1.616-.366-.974-1.564-.8-2.442.7-3.468,1.565-6.9,2.2-10.38.23-1.259.962-1.02,1.745-1.059.881-.044,1.431.288,1.526,1.2a8.633,8.633,0,0,1,.045,1.05c-.008.422,0,.782.588.762.422-.015.726-.041.818-.583.162-.956.41-1.9.643-2.843.136-.551-.011-.756-.617-.743-1.755.035-3.512.012-5.268.012H-571.3c-3.258,0-3.261,0-3.851,3.176C-575.2,152.077-575.563,152.47-575.058,152.589Z" transform="translate(-483.027 -16.841)"/>
    <path id="Trazado_654801" data-name="Trazado 654801" d="M-572.638,255.4c-1.755.049-3.512.016-5.268.016h-2.927c-3.233,0-3.235,0-3.819,3.219-.047.258-.387.644.149.737.352.061.8.2,1.054-.242.194-.336.359-.689.535-1.035a2.69,2.69,0,0,1,2.755-1.559c.7.025.864.19.711.86-.844,3.714-1.657,7.435-2.489,11.152-.181.805-.378,1.615-1.344,1.872-.223.059-.273.273-.281.464s.143.246.314.245c1.444,0,2.888,0,4.331-.008.236,0,.332-.164.365-.375a.251.251,0,0,0-.234-.32c-1.412-.264-.989-1.351-.829-2.135.746-3.656,1.579-7.294,2.4-10.935.056-.247.008-.557.274-.736a2.032,2.032,0,0,1,2.894,1.418c.022.271.03.545.027.817,0,.369-.014.71.514.713.461,0,.806-.011.9-.623.141-.919.39-1.823.618-2.728C-571.847,255.638-571.94,255.379-572.638,255.4Z" transform="translate(-477.995 -73.526)"/>
    <path id="Trazado_654802" data-name="Trazado 654802" d="M-1002.5,242.665a34.3,34.3,0,0,0,.949-4.446c.128-1.688-.839-2.5-2.468-2.1a5.546,5.546,0,0,0-2.455,1.721c-.311.3-.066.472.121.667s.382.394.671.1a6.259,6.259,0,0,1,.946-.865c.7-.474,1.1-.263,1.122.569a3.875,3.875,0,0,1-.126.92c-.376,1.668-.795,3.328-1.135,5a2.439,2.439,0,0,0,.852,2.821,2.85,2.85,0,0,0,3.191-.176,12.21,12.21,0,0,0,2.141-2.028c.05,2,.608,2.728,1.9,2.6a4.853,4.853,0,0,0,2.922-1.792c.274-.28.1-.475-.105-.682s-.4-.391-.671-.091a5.266,5.266,0,0,1-.5.495c-.381.316-.768.81-1.311.464-.46-.293-.3-.838-.2-1.292.525-2.392,1.074-4.778,1.576-7.175.076-.364.6-1.034-.159-1.095-.634-.051-1.659-.636-1.894.761-.27,1.606-.668,3.2-1.093,4.77a7.157,7.157,0,0,1-2.617,3.772,1.321,1.321,0,0,1-1.427.239,1.216,1.216,0,0,1-.556-1.316A14.012,14.012,0,0,1-1002.5,242.665Z" transform="translate(-254.035 -63.237)" fill="#010101"/>
    <path id="Trazado_654803" data-name="Trazado 654803" d="M-1038.349,130.714c.2.195.38.421.668.111a5.564,5.564,0,0,1,.67-.651c.326-.249.653-.651,1.122-.37s.285.761.262,1.175a3.419,3.419,0,0,1-.129.567c-.373,1.63-.775,3.253-1.107,4.891a2.452,2.452,0,0,0,.841,2.826,2.842,2.842,0,0,0,3.19-.165,11.882,11.882,0,0,0,2.172-2.063c-.006,1.044-.095,1.987.849,2.435a2.594,2.594,0,0,0,2.815-.579c.4-.308.754-.674,1.125-1.018.285-.264.129-.47-.088-.68s-.389-.41-.671-.107a5.56,5.56,0,0,1-.5.5c-.38.317-.766.811-1.311.478-.468-.287-.316-.833-.216-1.287.538-2.428,1.095-4.853,1.618-7.285.074-.343.463-.988-.184-.994-.613-.006-1.6-.676-1.867.636-.331,1.637-.7,3.269-1.132,4.883a7.172,7.172,0,0,1-2.609,3.777,1.332,1.332,0,0,1-1.427.249,1.2,1.2,0,0,1-.566-1.31,13.3,13.3,0,0,1,.327-1.833c.308-1.444.721-2.873.924-4.331.257-1.846-.884-2.723-2.654-2.166a6.016,6.016,0,0,0-2.234,1.648C-1038.761,130.339-1038.547,130.518-1038.349,130.714Z" transform="translate(-237.056 -6.011)" fill="#010101"/>
    <path id="Trazado_654804" data-name="Trazado 654804" d="M-783.956,130.692c.2.2.385.415.668.1a5.26,5.26,0,0,1,.582-.575c.351-.281.693-.729,1.209-.439.462.259.279.764.269,1.176a3.617,3.617,0,0,1-.132.685q-.866,3.86-1.736,7.725c2.067.248,2.069.249,2.493-1.612.276-1.213.519-2.434.823-3.64a7.4,7.4,0,0,1,2.578-3.937,1.359,1.359,0,0,1,1.506-.352c.609.286.639.859.579,1.4-.076.692-.237,1.375-.378,2.059a30.719,30.719,0,0,0-.873,4.1c-.12,1.777.955,2.62,2.654,2.094a5.579,5.579,0,0,0,2.158-1.55c.3-.289.272-.491-.005-.77s-.482-.353-.759-.02a4.678,4.678,0,0,1-.589.567c-.329.278-.692.608-1.138.329-.38-.237-.324-.674-.238-1.063.166-.759.359-1.513.511-2.275a17.258,17.258,0,0,0,.783-4.345,2.042,2.042,0,0,0-2.147-2.124,3.688,3.688,0,0,0-2.636,1.066c-.518.445-1.049.876-1.482,1.237-.067-1.919-.766-2.647-2.359-2.243a5.624,5.624,0,0,0-2.45,1.732C-784.373,130.323-784.15,130.5-783.956,130.692Z" transform="translate(-372.119 -5.985)" fill="#010101"/>
    <path id="Trazado_654805" data-name="Trazado 654805" d="M-379.692,160.023c.348-.127.632-.538,1.045-.347.432.2.352.654.327,1.038a5.223,5.223,0,0,1-.129.8q-.792,3.527-1.592,7.052c-.057.251-.264.524-.046.757.416.445,2.033-.051,2.169-.661.28-1.252.544-2.508.8-3.764a8.079,8.079,0,0,1,2.579-4.6c.5-.441,1.065-.886,1.781-.512.682.356.551,1.049.528,1.662a4.255,4.255,0,0,1-.148.8c-.336,1.438-.723,2.866-1,4.315-.191.994-.329,2.059.688,2.76.765.527,2.043.248,3.121-.629.332-.27.622-.589.944-.871.349-.306.157-.521-.083-.766s-.429-.315-.673-.029a3.657,3.657,0,0,1-.411.415c-.379.323-.765.828-1.3.551-.562-.288-.345-.882-.235-1.368.388-1.705.849-3.4,1.163-5.115.2-1.113.294-2.342-.906-3.025a2.883,2.883,0,0,0-3.382.422,23.936,23.936,0,0,0-1.967,1.993c.033-1.135.2-2.082-.76-2.551a2.531,2.531,0,0,0-2.727.467,1.211,1.211,0,0,0-.361.293c-.281.486-1.434.638-.8,1.44C-380.356,161.471-380.169,160.2-379.692,160.023Z" transform="translate(-586.061 -21.879)" fill="#010101"/>
    <path id="Trazado_654806" data-name="Trazado 654806" d="M-991.663,177.086a5.931,5.931,0,0,1,2.24-2.331c1.73-.937,3.18-.316,3.581,1.6.109.519.3.625.75.613.393-.011.686-.059.7-.548.035-.924.8-1.778.259-2.753-.025-.045-.146-.035-.222-.054-3.881-1.019-7.337-.534-9.627,3.333a15.511,15.511,0,0,0-2.084,7.329c-.154,3.439,1.791,5.256,5.206,4.964.544-.047,1.089-.084,1.632-.141,2.115-.22,2.117-.222,2.589-2.3.1-.448.182-.9.273-1.361a1.207,1.207,0,0,0-1.708.664c-.983,1.691-2.5,2.358-3.984,1.9-1.26-.389-1.81-1.45-1.7-3.586A15.833,15.833,0,0,1-991.663,177.086Z" transform="translate(-259.64 -29.86)" fill="#010101"/>
    <path id="Trazado_654807" data-name="Trazado 654807" d="M-1021.336,280.388c-3.886-1.021-7.34-.528-9.626,3.336a15.511,15.511,0,0,0-2.083,7.329c-.153,3.438,1.793,5.255,5.208,4.961.544-.047,1.089-.084,1.632-.141,2.114-.22,2.115-.222,2.587-2.307.1-.447.181-.9.27-1.351-1.133-.2-1.133-.2-1.685.671-1.053,1.653-2.523,2.346-4.007,1.886-1.259-.39-1.808-1.452-1.7-3.587a15.867,15.867,0,0,1,2.091-7.326,6.309,6.309,0,0,1,2.136-2.278c1.385-.844,3.486-.617,3.693,1.551.052.545.293.623.743.613.4-.009.684-.064.7-.551.034-.923.8-1.777.257-2.751C-1021.14,280.4-1021.261,280.408-1021.336,280.388Z" transform="translate(-240.005 -86.55)" fill="#010101"/>
    <path id="Trazado_654808" data-name="Trazado 654808" d="M-1391.294,197.531a14.025,14.025,0,0,0-3.007-.405,6.933,6.933,0,0,0-6.38,3.6,15.309,15.309,0,0,0-2.2,7.528c-.151,3.439,1.8,5.246,5.218,4.949.389-.034.777-.079,1.166-.108,2.642-.2,2.66-.2,3.126-2.806.052-.293.524-.775-.067-.969a.916.916,0,0,0-1.273.457,3.984,3.984,0,0,1-1.213,1.552,3.16,3.16,0,0,1-3.182.557c-1.081-.4-1.306-1.377-1.444-2.354a9.27,9.27,0,0,1,.177-3.02c.5-2.664,1.224-5.25,3.291-7.185,1.862-1.744,3.79-1.244,4.436,1.126.112.413.289.493.63.475s.71.1.8-.435c.124-.727.3-1.447.47-2.164C-1390.63,197.834-1390.81,197.65-1391.294,197.531Z" transform="translate(-43.647 -42.587)"/>
    <path id="Trazado_654809" data-name="Trazado 654809" d="M-1274.7,197.566c-3.794-1-7.257-.6-9.577,3.211a15.453,15.453,0,0,0-2.155,7.425c-.167,3.482,1.8,5.3,5.3,4.976.583-.053,1.169-.078,1.749-.156,1.914-.258,1.913-.265,2.336-2.148.11-.491.215-.982.327-1.492-1.037-.4-1.4.161-1.828.845a3.386,3.386,0,0,1-3.857,1.727c-1.227-.369-1.791-1.373-1.726-3.337a15.8,15.8,0,0,1,2.145-7.663,5.748,5.748,0,0,1,2.273-2.3c1.694-.87,3.133-.233,3.493,1.629.119.615.391.626.852.634s.6-.24.622-.643c.041-.891.757-1.714.268-2.654C-1274.5,197.577-1274.628,197.586-1274.7,197.566Z" transform="translate(-105.471 -42.574)"/>
    <path id="Trazado_654810" data-name="Trazado 654810" d="M-437.005,265.011a6.124,6.124,0,0,0-2.65.314c-2.9,1.036-4.913,5.011-4.2,8.285a3.231,3.231,0,0,0,2.909,2.76,5.647,5.647,0,0,0,5.716-2.594,8.977,8.977,0,0,0,1.355-4.355C-433.836,266.614-434.931,265.2-437.005,265.011Zm-.106,8.171a4.157,4.157,0,0,1-1.453,1.788,1.913,1.913,0,0,1-3.129-1.382,9.127,9.127,0,0,1,1.682-6.386,2.4,2.4,0,0,1,2.873-1c1.064.483,1.128,1.483,1.14,2.568A13.023,13.023,0,0,1-437.111,273.182Z" transform="translate(-552.752 -78.615)" fill="#010101"/>
    <path id="Trazado_654811" data-name="Trazado 654811" d="M-912.78,139.644a5.658,5.658,0,0,0,5.739-2.539,9.017,9.017,0,0,0,1.381-4.378c.048-2.8-1.017-4.213-3.081-4.428a6.081,6.081,0,0,0-2.654.29c-2.951,1.027-4.986,5.058-4.222,8.366A3.18,3.18,0,0,0-912.78,139.644Zm1-9.191a2.341,2.341,0,0,1,2.775-.976c1.122.38,1.186,1.418,1.222,2.486a12.862,12.862,0,0,1-1.138,4.539,3.947,3.947,0,0,1-1.569,1.83,1.88,1.88,0,0,1-2.981-1.383A9.175,9.175,0,0,1-911.776,130.452Z" transform="translate(-302.27 -6.026)" fill="#010101"/>
    <path id="Trazado_654812" data-name="Trazado 654812" d="M-927.184,289.96a6.058,6.058,0,0,0-2.658.265c-2.955.993-5.023,5.018-4.29,8.336a3.229,3.229,0,0,0,2.915,2.752,5.643,5.643,0,0,0,5.711-2.6,8.966,8.966,0,0,0,1.349-4.345C-924.123,291.594-925.172,290.2-927.184,289.96Zm-.232,8.2a3.935,3.935,0,0,1-1.571,1.828,1.88,1.88,0,0,1-2.979-1.389,9.175,9.175,0,0,1,1.694-6.494,2.34,2.34,0,0,1,2.777-.971c1.119.382,1.183,1.421,1.218,2.49A12.856,12.856,0,0,1-927.416,298.161Z" transform="translate(-292.447 -91.853)" fill="#010101"/>
    <path id="Trazado_654813" data-name="Trazado 654813" d="M-679.435,247.395a5.683,5.683,0,0,0,5.764-2.488,8.99,8.99,0,0,0,1.406-4.441c.029-2.648-.85-3.956-2.69-4.344a5.684,5.684,0,0,0-3,.209c-2.956.99-5.009,5.018-4.289,8.338A3.248,3.248,0,0,0-679.435,247.395Zm1.035-9.155a2.4,2.4,0,0,1,2.875-.989c1.06.488,1.122,1.487,1.133,2.576a13.012,13.012,0,0,1-1.116,4.405,4.151,4.151,0,0,1-1.456,1.786,1.913,1.913,0,0,1-3.125-1.394A9.131,9.131,0,0,1-678.4,238.239Z" transform="translate(-426.183 -63.232)" fill="#010101"/>
    <path id="Trazado_654814" data-name="Trazado 654814" d="M-207.633,169.558a5.664,5.664,0,0,0,5.76-2.495,8.99,8.99,0,0,0,1.4-4.441c.027-2.646-.855-3.954-2.7-4.337a5.686,5.686,0,0,0-3,.214c-2.953.995-5.013,5.027-4.273,8.341A3.193,3.193,0,0,0-207.633,169.558Zm1.061-9.2a2.328,2.328,0,0,1,2.784-.946c1.109.394,1.167,1.437,1.195,2.506a13.11,13.11,0,0,1-1.1,4.43,4.143,4.143,0,0,1-1.53,1.869,1.9,1.9,0,0,1-3.065-1.37A9.153,9.153,0,0,1-206.572,160.354Z" transform="translate(-676.673 -21.907)" fill="#010101"/>
    <path id="Trazado_654815" data-name="Trazado 654815" d="M-669.94,139.621a5.681,5.681,0,0,0,5.764-2.487,8.992,8.992,0,0,0,1.406-4.441c.03-2.649-.849-3.956-2.689-4.344a5.679,5.679,0,0,0-3,.21c-2.956.99-5.01,5.018-4.289,8.338A3.248,3.248,0,0,0-669.94,139.621Zm1.066-9.2a2.33,2.33,0,0,1,2.782-.952c1.112.391,1.17,1.433,1.2,2.5a12.939,12.939,0,0,1-1.145,4.533,4.057,4.057,0,0,1-1.476,1.767,1.9,1.9,0,0,1-3.069-1.362A9.159,9.159,0,0,1-668.874,130.421Z" transform="translate(-431.224 -6.012)" fill="#010101"/>
    <path id="Trazado_654816" data-name="Trazado 654816" d="M-996.563,289.968a5.959,5.959,0,0,0-2.772.265c-2.948,1.009-5,5.045-4.254,8.352a3.185,3.185,0,0,0,2.82,2.706,5.659,5.659,0,0,0,5.752-2.512,9.025,9.025,0,0,0,1.391-4.369C-993.571,291.648-994.568,290.246-996.563,289.968Zm-.242,8.038a4.243,4.243,0,0,1-1.5,1.9,1.914,1.914,0,0,1-3.136-1.365,9.126,9.126,0,0,1,1.674-6.389,2.4,2.4,0,0,1,2.87-1.008c1.07.476,1.136,1.475,1.151,2.545A13.175,13.175,0,0,1-996.805,298.005Z" transform="translate(-255.566 -91.85)" fill="#010101"/>
    <path id="Trazado_654817" data-name="Trazado 654817" d="M-236.04,265.011a6.08,6.08,0,0,0-2.654.293c-2.951,1.031-4.969,5.058-4.222,8.371a3.216,3.216,0,0,0,2.731,2.659,5.693,5.693,0,0,0,5.8-2.419,9.015,9.015,0,0,0,1.433-4.458C-232.907,266.639-233.975,265.223-236.04,265.011Zm-.163,8.188a3.982,3.982,0,0,1-1.562,1.837,1.883,1.883,0,0,1-2.994-1.359,9.09,9.09,0,0,1,1.752-6.589,2.3,2.3,0,0,1,2.805-.866c1.024.4,1.106,1.4,1.125,2.485A12.792,12.792,0,0,1-236.2,273.2Z" transform="translate(-659.429 -78.611)" fill="#010101"/>
    <path id="Trazado_654818" data-name="Trazado 654818" d="M-431.1,169.559a5.693,5.693,0,0,0,5.8-2.419,9.021,9.021,0,0,0,1.434-4.459c.048-2.816-1.02-4.232-3.086-4.444a6.077,6.077,0,0,0-2.653.293c-2.951,1.031-4.969,5.058-4.222,8.371A3.217,3.217,0,0,0-431.1,169.559Zm1.085-9.129a2.4,2.4,0,0,1,2.87-1.007c1.07.477,1.135,1.476,1.15,2.548a13.177,13.177,0,0,1-1.058,4.319,4.244,4.244,0,0,1-1.5,1.9,1.914,1.914,0,0,1-3.135-1.367A9.126,9.126,0,0,1-430.015,160.43Z" transform="translate(-558.066 -21.921)" fill="#010101"/>
    <path id="Trazado_654819" data-name="Trazado 654819" d="M-880.32,247.405a5.658,5.658,0,0,0,5.751-2.513,9.02,9.02,0,0,0,1.391-4.371c.054-2.761-.944-4.163-2.94-4.44a5.952,5.952,0,0,0-2.771.266c-2.949,1.01-5,5.045-4.252,8.353A3.185,3.185,0,0,0-880.32,247.405Zm1.009-9.157a2.473,2.473,0,0,1,2.88-1c.755.3,1.156,1.188,1.117,2.717a12.76,12.76,0,0,1-1.1,4.274,4.154,4.154,0,0,1-1.455,1.787A1.913,1.913,0,0,1-881,244.633,9.13,9.13,0,0,1-879.311,238.248Z" transform="translate(-319.516 -63.24)" fill="#010101"/>
    <path id="Trazado_654820" data-name="Trazado 654820" d="M-962.427,183.5c-2.9,1.036-4.912,5.012-4.193,8.286a3.231,3.231,0,0,0,2.909,2.759,5.645,5.645,0,0,0,5.715-2.6,8.97,8.97,0,0,0,1.354-4.355c.035-2.807-1.06-4.22-3.135-4.41A6.122,6.122,0,0,0-962.427,183.5Zm3.663,3.378a13.1,13.1,0,0,1-1.1,4.431,4.149,4.149,0,0,1-1.529,1.871,1.9,1.9,0,0,1-3.067-1.367,9.154,9.154,0,0,1,1.711-6.49,2.329,2.329,0,0,1,2.783-.948C-958.851,184.766-958.793,185.809-958.764,186.877Z" transform="translate(-275.198 -35.17)" fill="#010101"/>
    <path id="Trazado_654821" data-name="Trazado 654821" d="M-726.181,289.968a5.959,5.959,0,0,0-2.772.265c-2.948,1.009-5,5.044-4.254,8.352a3.185,3.185,0,0,0,2.82,2.706,5.659,5.659,0,0,0,5.752-2.512,9.02,9.02,0,0,0,1.391-4.368C-723.189,291.647-724.186,290.246-726.181,289.968Zm-.311,8.174a3.974,3.974,0,0,1-1.563,1.836,1.882,1.882,0,0,1-2.992-1.363,9.09,9.09,0,0,1,1.754-6.588,2.293,2.293,0,0,1,2.806-.863c1.023.4,1.1,1.406,1.123,2.487A12.782,12.782,0,0,1-726.492,298.141Z" transform="translate(-399.12 -91.85)" fill="#010101"/>
    <path id="Trazado_654822" data-name="Trazado 654822" d="M-892.883,183.458c-2.948,1.011-5,5.046-4.251,8.353a3.184,3.184,0,0,0,2.821,2.705A5.657,5.657,0,0,0-888.562,192a9.031,9.031,0,0,0,1.391-4.373c.053-2.759-.945-4.161-2.941-4.438A5.958,5.958,0,0,0-892.883,183.458Zm3.594,3.379a12.862,12.862,0,0,1-1.137,4.539,3.947,3.947,0,0,1-1.568,1.831,1.88,1.88,0,0,1-2.983-1.379,9.175,9.175,0,0,1,1.689-6.5,2.341,2.341,0,0,1,2.775-.978C-889.39,184.733-889.326,185.77-889.289,186.837Z" transform="translate(-312.086 -35.16)" fill="#010101"/>
    <path id="Trazado_654823" data-name="Trazado 654823" d="M-319.08,264.912a4.252,4.252,0,0,0-3.239,1.824c-.177.347,0,.491.193.687.235.24.45.268.661-.027a2.285,2.285,0,0,1,.22-.273c.406-.417.831-1,1.467-.678s.387,1.031.284,1.593a9.643,9.643,0,0,1-3.287,5.381c-.611.558-1.4,1.486-2.154,1.034-.608-.362-.194-1.5-.118-2.3,0-.038.019-.076.025-.114.248-1.616.511-3.231.741-4.85.264-1.86-.721-2.662-2.5-2.06a6.624,6.624,0,0,0-2.306,1.556c-.345.317-.16.513.046.77.236.293.43.247.66,0a3.863,3.863,0,0,1,.523-.467c.361-.268.741-.758,1.2-.469.431.272.27.828.2,1.3-.3,1.963-.566,3.93-.846,5.9l.075.009c0,.273-.017.547,0,.819.122,1.681.755,2.111,2.392,1.646a5.769,5.769,0,0,0,2.05-1.087,15.336,15.336,0,0,0,4.887-6.989,4.433,4.433,0,0,0,.253-1.837A1.324,1.324,0,0,0-319.08,264.912Z" transform="translate(-613.654 -78.577)" fill="#010101"/>
    <path id="Trazado_654824" data-name="Trazado 654824" d="M-809.61,289.888a4.111,4.111,0,0,0-3.479,1.788c-.179.34-.031.489.171.69.23.228.436.3.664,0a4.658,4.658,0,0,1,.459-.529c.342-.329.731-.7,1.227-.452s.425.77.36,1.246a9.5,9.5,0,0,1-3.253,5.653c-.634.6-1.456,1.566-2.237,1.124-.655-.371-.226-1.569-.108-2.4.237-1.657.532-3.306.75-4.966.228-1.742-.7-2.506-2.388-2a6.35,6.35,0,0,0-2.42,1.586c-.333.306-.2.506.023.77s.417.286.66.025a3.889,3.889,0,0,1,.61-.546c.337-.235.693-.677,1.115-.418.394.242.3.748.235,1.188-.306,2.04-.6,4.082-.891,6.124l.09.011c0,.234-.014.469,0,.7.119,1.689.745,2.123,2.378,1.667a5.692,5.692,0,0,0,2.053-1.082,15.3,15.3,0,0,0,4.93-7.095,4.1,4.1,0,0,0,.2-1.957A1.238,1.238,0,0,0-809.61,289.888Z" transform="translate(-353.086 -91.828)" fill="#010101"/>
    <path id="Trazado_654825" data-name="Trazado 654825" d="M-764.089,238.255c.285-1.921-.73-2.744-2.562-2.086a6.593,6.593,0,0,0-2.2,1.5c-.3.282-.268.479-.025.77.281.337.5.273.745-.014a2.27,2.27,0,0,1,.345-.315c.395-.3.809-.85,1.294-.6s.3.885.219,1.4c-.3,1.963-.562,3.93-.757,5.317-.069,3.134.946,3.8,3.219,2.669a10.368,10.368,0,0,0,3.572-3.14,12.014,12.014,0,0,0,2.775-5.828c.188-1.63-.723-2.351-2.289-1.907a4.717,4.717,0,0,0-2.252,1.6c-.328.382-.158.614.134.869.372.326.53.011.727-.225a3.469,3.469,0,0,1,.482-.508c.3-.243.644-.522,1.055-.328.466.22.476.674.4,1.115a9.624,9.624,0,0,1-4.761,6.864c-.616.382-1.047.309-.993-.56.034-.544.029-1.093.107-1.63C-764.614,241.562-764.335,239.911-764.089,238.255Z" transform="translate(-380.16 -63.169)" fill="#010101"/>
    <path id="Trazado_654826" data-name="Trazado 654826" d="M-350.878,160.683a3.1,3.1,0,0,1,.433-.392c.39-.29.795-.838,1.287-.534.478.3.25.907.175,1.412-.287,1.925-.548,3.854-.818,5.782l.071.008c0,.273-.017.547,0,.818.123,1.679.757,2.109,2.4,1.643a5.769,5.769,0,0,0,2.049-1.089,15.33,15.33,0,0,0,4.886-6.99,4.428,4.428,0,0,0,.252-1.838,1.312,1.312,0,0,0-1.427-1.36,3.975,3.975,0,0,0-3.157,1.735c-.408.476-.009.705.31.9.354.22.434-.182.605-.349.44-.429.864-1.108,1.548-.754s.378,1.115.26,1.7a9.681,9.681,0,0,1-3.266,5.266c-.612.557-1.4,1.486-2.154,1.031-.6-.363-.193-1.5-.115-2.3,0-.038.019-.076.025-.114.253-1.655.537-3.306.751-4.966.219-1.692-.672-2.453-2.3-2.01a6.2,6.2,0,0,0-2.528,1.628c-.344.319-.154.514.051.77C-351.3,160.984-351.1,160.928-350.878,160.683Z" transform="translate(-601.714 -21.891)" fill="#010101"/>
    <path id="Trazado_654827" data-name="Trazado 654827" d="M-837.258,289.926c-4.412.006-7.959,5.187-6.4,9.349a3.247,3.247,0,0,0,3.433,2.082,6,6,0,0,0,4.154-1.857c.26-.274.92-.45.348-1.082s-.861-.127-1.221.189a4.072,4.072,0,0,1-3.524,1.159c-1.055-.191-1.39-1.042-1.347-2.72.03-1.168.831-.755,1.392-.822,1.662-.2,3.347-.313,4.747-1.383a3.223,3.223,0,0,0,1.082-3.462C-834.9,290.415-835.8,289.924-837.258,289.926Zm0,4.121a5.966,5.966,0,0,1-3.393,1.037c-.811.176-.787-.221-.488-.888a6.081,6.081,0,0,1,1.982-2.69c.743-.512,1.551-.867,2.321-.1C-836.257,291.984-836.521,293.385-837.258,294.047Z" transform="translate(-340.362 -91.859)" fill="#010101"/>
    <path id="Trazado_654828" data-name="Trazado 654828" d="M-346.935,264.981c-3.718.042-6.553,3.262-6.587,7.476-.021,2.571,1.371,4.078,3.665,3.955a5.938,5.938,0,0,0,4.161-1.836c.254-.268.951-.428.4-1.077-.524-.618-.839-.209-1.221.135a4.135,4.135,0,0,1-3.281,1.224c-1.175-.122-1.544-.806-1.635-2.369-.072-1.256.612-1.185,1.491-1.243a8.194,8.194,0,0,0,4.638-1.33,3.159,3.159,0,0,0,1.078-3.555C-344.714,265.142-345.792,264.968-346.935,264.981Zm.272,3.9c-1.172,1.184-2.706,1.21-4.361,1.279a6.163,6.163,0,0,1,2.416-3.7,1.574,1.574,0,0,1,2.141-.041A1.938,1.938,0,0,1-346.662,268.881Z" transform="translate(-600.788 -78.614)" fill="#010101"/>
    <path id="Trazado_654829" data-name="Trazado 654829" d="M-531.816,264.975a5.907,5.907,0,0,0-1.959.289,7.6,7.6,0,0,0-4.552,8.709,3.2,3.2,0,0,0,3.513,2.435,5.974,5.974,0,0,0,4.156-1.849c.257-.272.934-.44.369-1.08-.55-.623-.853-.159-1.221.167a4.063,4.063,0,0,1-3.519,1.172c-1.061-.188-1.4-1.03-1.363-2.707.025-1.157.81-.773,1.379-.838,1.663-.191,3.347-.307,4.749-1.373a3.174,3.174,0,0,0,1.055-3.564C-529.686,265.178-530.715,264.986-531.816,264.975Zm.085,4.007c-1.187,1.056-2.661,1.139-4.268,1.16a6.193,6.193,0,0,1,2.337-3.633c.7-.482,1.488-.8,2.231-.08A1.99,1.99,0,0,1-531.731,268.982Z" transform="translate(-502.55 -78.611)" fill="#010101"/>
    <path id="Trazado_654830" data-name="Trazado 654830" d="M-320.862,169.532a5.611,5.611,0,0,0,5.1-1.691c.277-.274,1.044-.457.414-1.156-.575-.637-.865-.1-1.218.208a4.11,4.11,0,0,1-3.413,1.162c-1.119-.172-1.45-.934-1.456-2.631,0-1.2.785-.865,1.413-.934a8.99,8.99,0,0,0,4.647-1.319,3.193,3.193,0,0,0,1.164-3.53c-.32-.986-1.255-1.468-2.789-1.44-3.671.068-6.477,3.25-6.536,7.41C-323.566,167.864-322.687,169.219-320.862,169.532Zm.115-7.062a6.063,6.063,0,0,1,1.983-2.69c.743-.512,1.552-.866,2.321-.1a2.054,2.054,0,0,1-.429,2.636,5.821,5.821,0,0,1-3.265,1.033C-321.081,163.536-321.043,163.13-320.747,162.47Z" transform="translate(-616.709 -21.922)" fill="#010101"/>
    <path id="Trazado_654831" data-name="Trazado 654831" d="M-1081.95,139.613a5.672,5.672,0,0,0,5.085-1.76c.26-.262.943-.434.381-1.079-.541-.621-.849-.177-1.221.156a4.063,4.063,0,0,1-3.517,1.18c-1.066-.186-1.4-1.022-1.371-2.7.021-1.154.8-.783,1.371-.848,1.663-.185,3.348-.3,4.75-1.368a3.161,3.161,0,0,0,1.063-3.56c-.5-1.212-1.578-1.381-2.719-1.366-3.718.048-6.545,3.272-6.573,7.489C-1084.715,137.984-1083.805,139.329-1081.95,139.613Zm2.06-9.792c.736-.508,1.561-.858,2.312-.038a2.044,2.044,0,0,1-.411,2.549c-1.179.994-2.624,1.057-4.221,1.116A6.3,6.3,0,0,1-1079.89,129.821Z" transform="translate(-212.584 -6.029)" fill="#010101"/>
    <path id="Trazado_654832" data-name="Trazado 654832" d="M-1048.634,242.306a8.194,8.194,0,0,0,4.638-1.33,3.159,3.159,0,0,0,1.078-3.556c-.489-1.217-1.568-1.391-2.71-1.379-3.717.042-6.553,3.262-6.586,7.476-.021,2.571,1.37,4.078,3.664,3.955a5.938,5.938,0,0,0,4.161-1.836c.254-.268.951-.427.4-1.077-.525-.619-.84-.208-1.222.135a4.135,4.135,0,0,1-3.281,1.224c-1.174-.122-1.543-.806-1.634-2.369C-1050.2,242.291-1049.513,242.364-1048.634,242.306Zm1.177-4.681c.961-.7,1.948-.7,2.408-.033a2.154,2.154,0,0,1-.586,2.624,6.476,6.476,0,0,1-4.094.985A6.542,6.542,0,0,1-1047.457,237.625Z" transform="translate(-229.832 -63.249)" fill="#010101"/>
    <path id="Trazado_654833" data-name="Trazado 654833" d="M-525.338,169.633a5.952,5.952,0,0,0,4.161-1.838c.255-.269.949-.43.4-1.078-.528-.62-.842-.2-1.222.139a4.056,4.056,0,0,1-3.513,1.19c-1.072-.184-1.409-1.011-1.383-2.691.017-1.147.779-.8,1.362-.86,1.664-.179,3.348-.3,4.752-1.361a3.161,3.161,0,0,0,1.077-3.556c-.465-1.165-1.493-1.364-2.594-1.379a6.145,6.145,0,0,0-2.069.325,7.6,7.6,0,0,0-4.434,8.768A3.187,3.187,0,0,0-525.338,169.633Zm1.091-9.848c.961-.7,1.948-.7,2.408-.033a2.155,2.155,0,0,1-.586,2.624,6.476,6.476,0,0,1-4.094.985A6.542,6.542,0,0,1-524.247,159.786Z" transform="translate(-507.591 -21.921)" fill="#010101"/>
    <path id="Trazado_654834" data-name="Trazado 654834" d="M-831.3,189.439a8.988,8.988,0,0,0,4.647-1.318,3.2,3.2,0,0,0,1.167-3.529c-.319-.986-1.254-1.47-2.788-1.442-3.671.068-6.478,3.248-6.538,7.408-.033,2.251.846,3.607,2.669,3.921a5.609,5.609,0,0,0,5.1-1.689c.277-.274,1.046-.456.417-1.156-.572-.637-.864-.1-1.218.2A4.111,4.111,0,0,1-831.251,193c-1.119-.171-1.451-.933-1.458-2.629C-832.714,189.173-831.927,189.508-831.3,189.439Zm-.77-1.924a6.164,6.164,0,0,1,2.13-2.86c.713-.462,1.505-.775,2.228-.019a2.033,2.033,0,0,1-.282,2.471c-.946.964-2.221,1.032-3.441,1.2C-832.1,188.4-832.416,188.288-832.067,187.515Z" transform="translate(-345.258 -35.167)" fill="#010101"/>
    <path id="Trazado_654835" data-name="Trazado 654835" d="M-789.825,242.327a8.962,8.962,0,0,0,4.648-1.313A3.2,3.2,0,0,0-784,237.489c-.316-.991-1.247-1.476-2.782-1.45-3.673.063-6.484,3.239-6.546,7.4-.035,2.3.881,3.674,2.775,3.952a5.78,5.78,0,0,0,5.17-1.858c.265-.271.767-.46.255-1.007-.5-.531-.78-.215-1.139.114a4.106,4.106,0,0,1-3.493,1.254c-1.122-.168-1.456-.929-1.467-2.622C-791.235,242.078-790.461,242.4-789.825,242.327Zm1.324-4.748c.7-.482,1.484-.811,2.233-.095a1.97,1.97,0,0,1-.285,2.552c-1.184,1.067-2.665,1.145-4.28,1.169A6.243,6.243,0,0,1-788.5,237.579Z" transform="translate(-367.281 -63.248)" fill="#010101"/>
    <path id="Trazado_654836" data-name="Trazado 654836" d="M-754.758,139.685c1.717.014,3.434.006,5.151.006,2.561,0,2.566,0,2.985-2.594.035-.218.375-.538-.058-.683a.952.952,0,0,0-1,.1,2.525,2.525,0,0,0-.4.7,2.334,2.334,0,0,1-2.353,1.393c-.776-.028-1.554-.005-2.607-.005.363-.408.541-.6.715-.8q3.429-3.912,6.857-7.826c.275-.314.7-.6.426-1.094-.239-.432-.7-.223-1.063-.228-1.483-.022-2.965-.009-4.448-.009-3,0-3,0-3.464,3.025.481.06.917.269,1.337-.288,1.36-1.8,2.538-2.146,4.827-1.523-1.239,1.422-2.467,2.829-3.693,4.238q-1.881,2.161-3.758,4.324c-.243.281-.631.519-.389.993C-755.48,139.84-755.083,139.683-754.758,139.685Z" transform="translate(-387.222 -6.211)" fill="#010101"/>
    <path id="Trazado_654837" data-name="Trazado 654837" d="M-936.481,184.264a2.093,2.093,0,0,1,2.773,1.418.678.678,0,0,0,.744.524c.426.026.508-.233.611-.545.617-1.862.516-2.058-1.386-2.41-.534-.1-1.084-.11-1.627-.162l0,.046c-.273,0-.547-.011-.819,0-1.831.087-3.109.911-3.486,2.24-.4,1.428.153,2.535,1.83,3.655.583.389,1.175.768,1.722,1.2a1.8,1.8,0,0,1,.565,2.013,1.655,1.655,0,0,1-1.574,1.18c-1.206.134-2.551-.025-2.826-1.7-.059-.359-.228-.434-.544-.423s-.61.01-.673.449a9.257,9.257,0,0,1-.345,1.594c-.159.476.043.648.442.739a11.751,11.751,0,0,0,4.633.358A3.166,3.166,0,0,0-933.506,192a3.2,3.2,0,0,0-1.619-3.572,16.083,16.083,0,0,1-2.09-1.485A1.515,1.515,0,0,1-936.481,184.264Z" transform="translate(-288.574 -35.136)" fill="#010101"/>
    <path id="Trazado_654838" data-name="Trazado 654838" d="M-1060.5,139.206a11.012,11.012,0,0,0,4.977.277,3.042,3.042,0,0,0,2.547-2.277,3.046,3.046,0,0,0-1.247-3.4c-.63-.457-1.293-.867-1.938-1.3-.763-.518-1.335-1.172-.946-2.146.4-1,1.284-1.117,2.245-1.021a1.775,1.775,0,0,1,1.716,1.481c.1.5.4.47.759.5.445.036.493-.272.587-.57.588-1.855.488-2.041-1.418-2.388-.534-.1-1.084-.106-1.628-.155l0,.041c-.234,0-.469-.008-.7,0-1.9.073-3.211.909-3.581,2.272-.388,1.43.174,2.52,1.861,3.644.583.388,1.174.77,1.719,1.208a1.785,1.785,0,0,1,.537,2.018,1.692,1.692,0,0,1-1.594,1.16c-1.575.189-2.3-.205-2.773-1.626-.116-.348-.2-.536-.6-.51-.344.022-.59.06-.65.482a9.078,9.078,0,0,1-.348,1.593C-1061.147,138.993-1060.873,139.122-1060.5,139.206Z" transform="translate(-225.152 -5.997)" fill="#010101"/>
    <path id="Trazado_654839" data-name="Trazado 654839" d="M-722.187,246.327c-1.586.227-2.34-.175-2.844-1.672a.547.547,0,0,0-.642-.457.519.519,0,0,0-.608.53,7.048,7.048,0,0,1-.322,1.479c-.2.545.073.7.508.8a11.767,11.767,0,0,0,4.519.345,3.215,3.215,0,0,0,2.972-2.408c.363-1.489-.179-2.618-1.679-3.656a17.535,17.535,0,0,1-2.081-1.494,1.511,1.511,0,0,1,.637-2.594,2.171,2.171,0,0,1,2.919,1.348c.149.407.3.542.711.566.494.028.567-.279.669-.625.543-1.851.453-2.01-1.482-2.351-.5-.087-1.009-.093-1.513-.136l0,.049c-.351,0-.7-.022-1.053,0-1.757.13-2.981.988-3.31,2.3-.345,1.378.19,2.466,1.715,3.5.643.438,1.307.85,1.91,1.338a1.764,1.764,0,0,1,.491,2.028A1.681,1.681,0,0,1-722.187,246.327Z" transform="translate(-402.673 -63.225)" fill="#010101"/>
    <path id="Trazado_654840" data-name="Trazado 654840" d="M-279.1,265.07c-.5-.087-1.008-.093-1.513-.137l0,.049c-.351,0-.7-.022-1.054,0-1.757.13-2.981.988-3.31,2.3-.345,1.377.19,2.466,1.715,3.5.643.438,1.307.851,1.91,1.338a1.763,1.763,0,0,1,.491,2.028,1.682,1.682,0,0,1-1.514,1.106c-1.586.228-2.34-.175-2.844-1.672a.547.547,0,0,0-.642-.457.519.519,0,0,0-.608.53,7.049,7.049,0,0,1-.322,1.479c-.2.545.073.7.508.8a11.768,11.768,0,0,0,4.52.345,3.215,3.215,0,0,0,2.973-2.408c.363-1.489-.18-2.618-1.679-3.656a17.488,17.488,0,0,1-2.081-1.494,1.511,1.511,0,0,1,.637-2.594A2.171,2.171,0,0,1-279,267.48c.15.407.3.542.711.566.494.029.568-.279.669-.625C-277.078,265.57-277.168,265.411-279.1,265.07Z" transform="translate(-636.18 -78.59)" fill="#010101"/>
    <path id="Trazado_654841" data-name="Trazado 654841" d="M-1024.6,246.321c-1.588.2-2.226-.156-2.812-1.718-.123-.327-.247-.42-.558-.412-.333.008-.606.019-.669.455a9.112,9.112,0,0,1-.346,1.594c-.161.482.056.645.449.734a11.716,11.716,0,0,0,4.633.356,3.163,3.163,0,0,0,2.935-2.444,3.2,3.2,0,0,0-1.625-3.57,15.914,15.914,0,0,1-2.089-1.485,1.514,1.514,0,0,1,.744-2.678,2.089,2.089,0,0,1,2.767,1.424c.163.441.371.493.749.518.43.028.5-.241.606-.55.609-1.856.506-2.055-1.392-2.4-.534-.1-1.084-.11-1.627-.161l0,.047c-.273,0-.547-.012-.819,0-1.828.089-3.108.916-3.481,2.245-.4,1.429.157,2.532,1.836,3.653.583.389,1.175.769,1.721,1.2a1.8,1.8,0,0,1,.559,2.014A1.681,1.681,0,0,1-1024.6,246.321Z" transform="translate(-242.137 -63.216)" fill="#010101"/>
    <path id="Trazado_654842" data-name="Trazado 654842" d="M-769.313,290.026c-.534-.1-1.084-.11-1.627-.161l0,.046c-.273,0-.547-.011-.819,0-1.83.088-3.109.912-3.484,2.241-.4,1.429.155,2.534,1.833,3.654.583.389,1.175.768,1.722,1.2a1.8,1.8,0,0,1,.563,2.013A1.658,1.658,0,0,1-772.7,300.2c-1.2.132-2.551-.022-2.824-1.706-.059-.361-.231-.432-.546-.422-.33.011-.609.013-.673.451a9.218,9.218,0,0,1-.345,1.594c-.159.477.047.646.444.737a11.744,11.744,0,0,0,4.633.357,3.165,3.165,0,0,0,2.937-2.441A3.2,3.2,0,0,0-770.7,295.2a16.034,16.034,0,0,1-2.089-1.485,1.515,1.515,0,0,1,.737-2.681,2.091,2.091,0,0,1,2.771,1.419.679.679,0,0,0,.745.522c.427.027.506-.235.609-.546C-767.311,290.575-767.412,290.377-769.313,290.026Z" transform="translate(-375.873 -91.826)" fill="#010101"/>
    <path id="Trazado_654843" data-name="Trazado 654843" d="M-970.79,290.02c-.5-.088-1.008-.095-1.512-.139l0,.056c-.39,0-.783-.03-1.17.005a3.307,3.307,0,0,0-3.2,2.285c-.35,1.378.183,2.471,1.7,3.508.643.438,1.307.85,1.912,1.336a1.769,1.769,0,0,1,.5,2.027,1.677,1.677,0,0,1-1.507,1.114c-1.585.235-2.354-.176-2.854-1.661-.13-.388-.278-.472-.633-.468-.373,0-.564.122-.616.521a7.08,7.08,0,0,1-.321,1.479c-.193.535.051.7.5.8a11.816,11.816,0,0,0,4.52.349,3.221,3.221,0,0,0,2.98-2.4c.368-1.488-.172-2.621-1.669-3.66a17.841,17.841,0,0,1-2.082-1.494,1.508,1.508,0,0,1,.621-2.6,2.177,2.177,0,0,1,2.927,1.335c.147.4.28.553.7.576.488.026.573-.264.677-.616C-968.773,290.537-968.872,290.36-970.79,290.02Z" transform="translate(-268.939 -91.835)" fill="#010101"/>
    <path id="Trazado_654844" data-name="Trazado 654844" d="M-698.356,230.406c-.705-.014-.691.508-.836.917-.4,1.13-.792,2.251-2.3,2.233-.476-.005-.458.383-.453.665.008.446.411.294.623.266,1.12-.149,1.146.311.923,1.255a53.9,53.9,0,0,0-1.248,5.8c-.014,1.931.623,2.723,2.134,2.91a5.007,5.007,0,0,0,4.081-2.137.422.422,0,0,0-.02-.52c-.356-.48-.644-.5-1.076-.012-.619.691-1.361,1.561-2.377,1.024-1.047-.553-.6-1.643-.424-2.538.306-1.525.7-3.033.973-4.564.161-.909.483-1.385,1.5-1.221a11.028,11.028,0,0,0,1.872.013c.578-.008.532-.478.583-.843.075-.538-.351-.383-.625-.4-.311-.02-.624,0-.937,0-1.813,0-1.907-.027-1.4-1.757C-697.027,230.336-697.582,230.421-698.356,230.406Z" transform="translate(-415.798 -60.257)" fill="#010101"/>
    <path id="Trazado_654845" data-name="Trazado 654845" d="M-956.221,230.4c-.69.006-.706.474-.855.9-.395,1.122-.768,2.269-2.284,2.253-.467,0-.475.351-.483.644-.014.459.387.319.6.293,1.05-.132,1.229.216.955,1.23-.536,1.987-.908,4.018-1.25,5.582-.026,2.2.648,3.044,2.219,3.156a3.813,3.813,0,0,0,3.132-1.3c.352-.38,1.469-.661.668-1.485-.774-.8-.94.371-1.359.624-.649.392-1.258.951-2.013.49-.7-.428-.6-1.221-.463-1.918.269-1.374.573-2.742.878-4.109.5-2.25.506-2.249,2.87-2.256a6.534,6.534,0,0,0,.819-.013c.478-.062.438-.478.493-.808.088-.525-.31-.419-.6-.43-.312-.011-.625,0-.937,0-1.838,0-1.924-.024-1.435-1.732C-954.952,230.43-955.371,230.388-956.221,230.4Z" transform="translate(-278.875 -60.252)" fill="#010101"/>
    <path id="Trazado_654846" data-name="Trazado 654846" d="M-745.588,287.106c-.31-.03-.624-.007-.937-.007-1.732,0-1.732,0-1.363-1.729.235-1.1.088-1.213-1.033-1.113-.631.057-.6.512-.739.884-.408,1.114-.763,2.275-2.281,2.261-.464,0-.481.336-.5.634-.023.464.379.338.591.3,1.281-.21,1.161.419.933,1.33-.492,1.959-.88,3.945-1.214,5.476-.037,2.576,1.154,3.513,3.248,3.065a3.778,3.778,0,0,0,2.093-1.2c.347-.4,1.459-.663.685-1.485s-.942.357-1.358.609c-.648.391-1.252.954-2.012.5-.71-.423-.609-1.216-.474-1.911.26-1.336.566-2.664.857-3.994.518-2.366.52-2.365,3-2.382a4.339,4.339,0,0,1,.469,0c.619.064.688-.366.74-.811C-744.808,286.91-745.294,287.135-745.588,287.106Z" transform="translate(-388.992 -88.833)" fill="#010101"/>
    <path id="Trazado_654847" data-name="Trazado 654847" d="M-913.126,182.247c.122-.625.41-.731.948-.7.662.033,1.33-.03,1.991.019.621.046.835-.246.879-.8.058-.736-.5-.4-.805-.455a4.714,4.714,0,0,0-.819-.01c-1.752,0-1.752,0-1.388-1.709.228-1.068-.053-1.323-1.126-1.124-.473.088-.479.423-.6.746-.425,1.181-.779,2.438-2.423,2.407-.4-.008-.37.351-.4.6-.051.476.355.358.567.324,1.224-.2,1.21.346.961,1.31-.507,1.956-.884,3.944-1.219,5.481-.039,2.192.623,3.043,2.184,3.173a3.8,3.8,0,0,0,3.142-1.277c.362-.383,1.436-.666.711-1.484-.766-.863-.945.334-1.356.582-.647.389-1.243.962-2.01.525-.724-.413-.638-1.21-.493-1.9C-913.977,186.042-913.5,184.155-913.126,182.247Z" transform="translate(-301.693 -32.116)" fill="#010101"/>
    <path id="Trazado_654848" data-name="Trazado 654848" d="M-274.037,156.646c1.059-.135,1.2.227.954,1.234a51.513,51.513,0,0,0-1.255,5.795c-.022,1.983.654,2.829,2.226,2.941a3.676,3.676,0,0,0,3.041-1.231c.369-.4,1.572-.677.75-1.557-.752-.8-.935.372-1.356.626-.649.392-1.259.949-2.013.486-.7-.43-.6-1.223-.46-1.919.269-1.374.574-2.742.878-4.109.5-2.246.506-2.245,2.873-2.252a6.27,6.27,0,0,0,.819-.013c.477-.065.436-.481.49-.811.086-.527-.316-.414-.6-.426-.312-.012-.625,0-.937,0-1.835,0-1.922-.025-1.431-1.735.312-1.088-.124-1.114-.964-1.11-.692,0-.7.478-.852.9-.4,1.123-.771,2.267-2.286,2.251-.469-.005-.473.356-.48.646C-274.653,156.816-274.251,156.673-274.037,156.646Z" transform="translate(-642.668 -18.927)" fill="#010101"/>
    <path id="Trazado_654849" data-name="Trazado 654849" d="M-255.3,262.157c-.309-.03-.624-.007-.937-.007-1.731,0-1.731,0-1.362-1.73.237-1.108.1-1.214-1.034-1.112-.631.057-.6.513-.738.885-.408,1.114-.764,2.274-2.281,2.26-.464,0-.481.337-.495.635-.022.463.38.337.592.3,1.283-.211,1.159.422.931,1.331-.492,1.959-.88,3.945-1.214,5.476-.036,2.576,1.155,3.512,3.249,3.064a3.78,3.78,0,0,0,2.093-1.2c.347-.4,1.46-.663.684-1.485s-.942.359-1.358.611c-.648.391-1.253.954-2.011.5-.71-.423-.609-1.217-.473-1.912.254-1.3.557-2.586.841-3.878.544-2.479.544-2.479,3.015-2.5a4.322,4.322,0,0,1,.468,0c.62.063.688-.368.739-.812C-254.524,261.96-255.01,262.186-255.3,262.157Z" transform="translate(-649.299 -75.586)" fill="#010101"/>
    <path id="Trazado_654850" data-name="Trazado 654850" d="M-946.4,287.131c-.312-.013-.625,0-.937,0-1.834,0-1.921-.025-1.43-1.736.313-1.09-.127-1.113-.964-1.109-.692,0-.7.479-.852.9-.4,1.123-.771,2.266-2.287,2.25-.469,0-.472.356-.479.647-.01.458.391.315.606.288,1.061-.135,1.2.23.953,1.234a51.565,51.565,0,0,0-1.255,5.795c-.023,1.983.655,2.829,2.226,2.941a3.676,3.676,0,0,0,3.041-1.232c.369-.4,1.572-.677.749-1.556-.752-.8-.934.373-1.356.627-.649.392-1.259.949-2.013.485-.7-.43-.6-1.223-.459-1.919.269-1.374.573-2.742.878-4.109.5-2.245.505-2.245,2.873-2.252a6.186,6.186,0,0,0,.819-.013c.476-.065.435-.482.489-.812C-945.707,287.03-946.109,287.143-946.4,287.131Z" transform="translate(-282.325 -88.863)" fill="#010101"/>
    <path id="Trazado_654851" data-name="Trazado 654851" d="M-991.376,126.713c1.32-.218,1.42.383,1.039,1.427a10.833,10.833,0,0,0-.426,1.816,20.639,20.639,0,0,0-.763,4.358A2.172,2.172,0,0,0-989.1,136.7a5.088,5.088,0,0,0,3.745-2.125c.325-.371-.008-.541-.191-.771-.227-.283-.429-.255-.661,0a8.694,8.694,0,0,1-.748.739c-.552.48-1.188.887-1.9.476-.676-.388-.629-1.135-.5-1.791.275-1.452.6-2.9.921-4.339.49-2.167.5-2.153,2.706-2.174.6-.006,1.51.3,1.431-.786-.073-.991-.928-.409-1.371-.426-1.964-.079-2.013-.046-1.535-1.971.2-.8,0-1-.736-.872-.6-.108-.9.094-1.085.724-.356,1.2-.766,2.439-2.41,2.407-.4-.008-.354.357-.392.6C-991.894,126.762-991.586,126.747-991.376,126.713Z" transform="translate(-261.885 -3.032)" fill="#010101"/>
    <path id="Trazado_654852" data-name="Trazado 654852" d="M-1416.611,197.555c-.584-.012-1.169,0-1.753,0-.623,0-1.247,0-1.871,0-.184,0-.419-.029-.477.212-.032.133,0,.4.053.418,1.472.4.946,1.543.775,2.383-.681,3.347-1.465,6.672-2.216,10-.18.8-.332,1.625-1.243,1.965a.417.417,0,0,0-.261.463c.007.273.223.267.417.267q1.929,0,3.858,0c.194,0,.4-.022.435-.274.031-.2.041-.387-.22-.447-.972-.223-.909-.943-.755-1.656q1.215-5.634,2.47-11.259a1.551,1.551,0,0,1,1.019-1.319.409.409,0,0,0,.328-.517C-1416.108,197.462-1416.4,197.559-1416.611,197.555Z" transform="translate(-32.65 -42.811)" fill="#010101"/>
    <path id="Trazado_654853" data-name="Trazado 654853" d="M-1250.95,197.564c-1.325,0-2.65-.012-3.975.008-.452.007-.555.517-.295.6,1.52.5.911,1.649.74,2.518-.631,3.2-1.368,6.376-2.087,9.556a7.857,7.857,0,0,1-.593,1.759c-.236.48-1.313.43-.929,1.081.291.494,1.143.11,1.74.186a3.529,3.529,0,0,0,.467,0c.663,0,1.325,0,1.987,0,.195,0,.4-.024.433-.277.03-.2.036-.384-.223-.446-1.055-.254-.887-1.047-.732-1.773q1.132-5.294,2.313-10.577c.176-.79.305-1.637,1.266-1.928.238-.072.23-.286.219-.475S-1250.79,197.564-1250.95,197.564Z" transform="translate(-120.483 -42.819)" fill="#010101"/>
    <path id="Trazado_654854" data-name="Trazado 654854" d="M-1368.631,197.5a4.655,4.655,0,0,0-.7,0c-.663,0-1.325,0-1.987,0-.193,0-.414.019-.427.276-.007.14.041.394.108.41,1.5.35.9,1.5.741,2.277-.686,3.425-1.489,6.826-2.259,10.233-.164.726-.351,1.459-1.157,1.766a.442.442,0,0,0-.294.547c.027.2.2.2.354.2q1.988,0,3.975-.006c.222,0,.368-.1.378-.336.006-.153.026-.318-.181-.364-1.129-.254-.937-1.092-.774-1.854q1.184-5.521,2.422-11.031a7.332,7.332,0,0,1,.428-.948c.178-.462,1.215-.315.88-.977C-1367.374,197.2-1368.116,197.573-1368.631,197.5Z" transform="translate(-58.659 -42.75)" fill="#010101"/>
    <path id="Trazado_654855" data-name="Trazado 654855" d="M-1005.552,122.455c-.638,3.038-1.475,6.035-1.884,8.89-.069,2,1.028,2.824,2.71,2.277a4.342,4.342,0,0,0,1.8-1.248c.272-.29.89-.5.29-1.089-.556-.542-.714.067-1,.285-.422.324-.8.933-1.383.644-.672-.335-.356-1.027-.238-1.574.772-3.566,1.564-7.127,2.345-10.691.635-2.893.632-2.894-2.351-2.732-.117.006-.234,0-.351.01-.243.012-.458.048-.511.356-.058.337.145.375.4.413.837.123.948.687.808,1.38Q-1005.225,120.917-1005.552,122.455Z" transform="translate(-253.604 -0.133)" fill="#010101"/>
    <path id="Trazado_654856" data-name="Trazado 654856" d="M-847.606,133.618c1.109.555,2.116.029,3-.689.331-.269.622-.588.94-.873.357-.319.113-.524-.11-.763s-.44-.274-.671,0a3.558,3.558,0,0,1-.412.413c-.379.322-.767.826-1.3.534s-.349-.886-.242-1.376q1.294-5.915,2.6-11.828c.417-1.881.426-1.879-1.435-1.781-.428,0-.857-.008-1.285,0-.3.008-.653-.06-.707.4s.337.341.554.4c.631.166.76.6.68,1.162-.061.422-.136.843-.226,1.26-.744,3.453-1.517,6.9-2.225,10.36C-848.659,131.871-848.767,133.037-847.606,133.618Z" transform="translate(-337.946 -0.163)" fill="#010101"/>
    <path id="Trazado_654857" data-name="Trazado 654857" d="M-780.14,179.552c-.457,2.243-1.132,4.443-1.368,6.731a2.066,2.066,0,0,0,.782,2.176,2.2,2.2,0,0,0,2.335-.113,7.367,7.367,0,0,0,1.377-1.06c.3-.274.877-.516.271-1.086-.568-.535-.713.1-1,.308-.426.318-.8.92-1.389.63-.61-.3-.358-.953-.245-1.472q1.292-5.916,2.6-11.828c.395-1.79.4-1.79-1.432-1.674-.545,0-1.09,0-1.636,0a.366.366,0,0,0-.38.358c-.037.238.053.355.3.381,1.09.12,1.035.866.87,1.641C-779.406,176.216-779.8,177.879-780.14,179.552Z" transform="translate(-373.543 -29.312)" fill="#010101"/>
    <path id="Trazado_654858" data-name="Trazado 654858" d="M-973.551,232.422c-.457,2.244-1.131,4.443-1.37,6.73a2.076,2.076,0,0,0,.771,2.18,2.19,2.19,0,0,0,2.334-.1,7.076,7.076,0,0,0,1.379-1.057c.289-.271.89-.5.289-1.085-.559-.541-.713.073-1,.289-.423.322-.806.933-1.384.641-.667-.337-.353-1.029-.234-1.577q1.259-5.8,2.55-11.6c.426-1.915.438-1.913-1.507-1.814-.429,0-.857-.007-1.286,0-.268.006-.557-.023-.625.361-.081.46.283.376.515.43.782.182.816.746.687,1.362C-972.8,228.932-973.2,230.673-973.551,232.422Z" transform="translate(-270.854 -57.385)" fill="#010101"/>
    <path id="Trazado_654859" data-name="Trazado 654859" d="M-830,139.717a5.686,5.686,0,0,0,4.162-1.826c.264-.269.641-.468.166-.918-.373-.355-.62-.336-.97,0a3.9,3.9,0,0,1-2.935,1.212,1.581,1.581,0,0,1-1.57-1.155c-.667-1.915.81-6.18,2.518-7.267,1.352-.862,2.263-.511,2.573,1.03.074.368.163.585.567.544.357-.036.739.134.957-.4.8-1.977.479-2.533-1.625-2.625-.156-.007-.312,0-.468,0a6.229,6.229,0,0,0-2.521.388c-3.126,1.177-5.242,6.2-3.878,9.245A2.986,2.986,0,0,0-830,139.717Z" transform="translate(-345.984 -6.048)" fill="#010101"/>
    <path id="Trazado_654860" data-name="Trazado 654860" d="M-814.684,236.152a2.579,2.579,0,0,0-2.625.536,3.7,3.7,0,0,0-.789.69c-.219.3-.974.428-.395,1.073s.765-.016,1.083-.26c.418-.32.789-.935,1.38-.631s.3.971.277,1.5a2.745,2.745,0,0,1-.115.453q-.857,3.811-1.712,7.625c2.051.317,2.053.317,2.483-1.566.277-1.214.528-2.434.823-3.643a7.253,7.253,0,0,1,2.484-3.867c.633-.534,1.336-.692,1.633.3.2.658.622.412,1,.466.541.079.5-.342.576-.667a10.4,10.4,0,0,1,.291-1.25c.257-.717-.062-.854-.708-.9-2.079-.148-3.431,1.014-4.819,2.73C-813.758,237.559-813.653,236.574-814.684,236.152Z" transform="translate(-353.807 -63.219)" fill="#010101"/>
    <path id="Trazado_654861" data-name="Trazado 654861" d="M-861.133,289.922a3.614,3.614,0,0,0-1.619.632,12.69,12.69,0,0,0-2.024,1.9c0-.357.008-.575,0-.793-.058-1.392-.771-1.992-2.13-1.759a5.193,5.193,0,0,0-2.675,1.79c-.317.313-.006.473.158.666.2.24.415.337.67.051a5.528,5.528,0,0,1,.583-.575c.326-.271.675-.662,1.124-.451.526.249.351.806.333,1.26a3.312,3.312,0,0,1-.11.572q-.8,3.53-1.593,7.06c-.057.252-.263.526-.046.758.416.446,2.034-.052,2.17-.664q.419-1.88.8-3.768a7.947,7.947,0,0,1,2.588-4.6c.865-.75,1.252-.671,1.8.279.246.425,1.282.6,1.4.213a4.554,4.554,0,0,0,.385-2.36C-859.491,289.574-860.5,289.887-861.133,289.922Z" transform="translate(-326.724 -91.794)" fill="#010101"/>
    <path id="Trazado_654862" data-name="Trazado 654862" d="M-300.672,160.686c.2.241.416.336.67.05a5.487,5.487,0,0,1,.583-.576c.326-.271.675-.662,1.124-.45.526.249.35.806.332,1.261a3.3,3.3,0,0,1-.11.572q-.8,3.53-1.593,7.06c-.057.252-.263.525-.045.757.418.446,2.033-.052,2.169-.665q.419-1.881.8-3.769a7.949,7.949,0,0,1,2.588-4.6c.865-.748,1.329-.7,1.771.294.251.569.615.316.944.377.4.075.538-.137.583-.516a4.99,4.99,0,0,1,.276-1.251c.371-.929-.1-1.022-.867-1.05-1.992-.071-3.261,1.077-4.579,2.686,0-.449.008-.667,0-.885-.058-1.392-.772-1.992-2.13-1.758a5.191,5.191,0,0,0-2.674,1.791C-301.149,160.333-300.836,160.493-300.672,160.686Z" transform="translate(-628.69 -21.911)" fill="#010101"/>
    <path id="Trazado_654863" data-name="Trazado 654863" d="M-369.369,264.931c-2.025-.079-3.312,1.1-4.616,2.684,0-2.253-.738-3.013-2.325-2.6a5.637,5.637,0,0,0-2.456,1.731c-.3.3-.078.471.114.669s.391.4.669.1a5.27,5.27,0,0,1,.584-.574c.352-.281.693-.729,1.212-.425.455.266.285.764.269,1.178a3.849,3.849,0,0,1-.136.686c-.531,2.353-1.067,4.705-1.592,7.06-.053.236-.288.5.047.718a1.612,1.612,0,0,0,2.146-.9c.254-1.179.514-2.357.75-3.54a7.927,7.927,0,0,1,2.659-4.681c.669-.564,1.38-.77,1.7.306.184.607.576.361.91.42.48.085.583-.206.635-.6a4.663,4.663,0,0,1,.249-1.138C-368.2,265.155-368.534,264.963-369.369,264.931Z" transform="translate(-587.306 -78.574)" fill="#010101"/>
    <path id="Trazado_654864" data-name="Trazado 654864" d="M-857.833,186.523l-1.752,7.781a6.5,6.5,0,0,1,.748.061c1.127.229,1.568-.255,1.69-1.366s.463-2.207.7-3.311a7.92,7.92,0,0,1,2.5-4.39c.883-.787,1.309-.743,1.839.307.277.548.652.254.981.322.443.092.481-.242.536-.565a6.453,6.453,0,0,1,.282-1.251c.336-.865-.1-.961-.819-1-2.03-.1-3.326,1.077-4.65,2.689,0-1.1.157-2.049-.808-2.5a2.527,2.527,0,0,0-2.725.509c-.43.333-.81.731-1.221,1.09-.3.266-.15.462.071.668.2.184.372.438.667.136a5.831,5.831,0,0,1,.5-.494c.38-.305.74-.841,1.294-.535s.289.9.274,1.393A2.518,2.518,0,0,1-857.833,186.523Z" transform="translate(-331.511 -35.136)" fill="#010101"/>
    <path id="Trazado_654865" data-name="Trazado 654865" d="M-608.259,164.926c.272.394.41.858,1.024.37.693-.551,1.446-1.025,2.306-1.625-.091,1.036-.129,1.886-.249,2.725-.1.69.234.755.794.753.583,0,.862-.1.753-.788-.128-.807-.124-1.634-.189-2.638.81.559,1.453.929,2.007,1.4.6.513.9.423,1.308-.246.431-.713.005-.821-.483-1.037-.719-.318-1.416-.683-2.3-1.116.959-.452,1.705-.865,2.5-1.159.706-.262.494-.6.223-1.023-.245-.382-.359-.883-1.01-.377a7.9,7.9,0,0,1-2.253,1.444c.061-.872.073-1.615.178-2.344.085-.594.088-.933-.7-.956-.82-.024-.895.327-.809.978.1.774.141,1.555.221,2.5-.806-.559-1.46-.979-2.075-1.449-.491-.375-.8-.589-1.242.152-.481.8-.056.958.508,1.2.7.3,1.384.637,2.257,1.042-.977.457-1.726.848-2.507,1.16C-608.627,164.147-608.589,164.447-608.259,164.926Z" transform="translate(-465.416 -21.981)" fill="#010101"/>
    <path id="Trazado_654866" data-name="Trazado 654866" d="M-610.569,267.315c-.245-.383-.359-.883-1.01-.376a7.9,7.9,0,0,1-2.249,1.442c.056-.833.082-1.533.155-2.228.058-.552.259-1.038-.676-1.076-1-.04-.845.514-.795,1.1.063.739.132,1.478.213,2.385-.812-.563-1.467-.983-2.082-1.454-.492-.376-.8-.586-1.242.153-.482.8-.053.957.51,1.2.7.3,1.384.637,2.256,1.041-.977.457-1.727.849-2.508,1.16-.628.25-.587.551-.259,1.029.272.395.411.857,1.024.369.692-.551,1.446-1.025,2.306-1.625-.091,1.036-.13,1.887-.25,2.726-.1.691.236.753.8.751.584,0,.865-.1.751-.788-.133-.8-.143-1.613-.224-2.662.847.585,1.49.955,2.044,1.43.6.514.9.422,1.307-.247.431-.713.005-.821-.483-1.037-.719-.318-1.416-.683-2.3-1.116.96-.453,1.705-.866,2.5-1.159C-610.085,268.075-610.3,267.737-610.569,267.315Z" transform="translate(-460.11 -78.664)" fill="#010101"/>
    <path id="Trazado_654867" data-name="Trazado 654867" d="M-787.085,299.055c-.433.414-.88,1.124-1.544.76s-.289-1.14-.173-1.712c.433-2.129.93-4.244,1.394-6.367.381-1.744.375-1.744-1.416-1.643-.506.031-1.011.063-1.517.087a.365.365,0,0,0-.387.341c-.039.219,0,.385.251.418,1.056.136.923.861.775,1.577-.408,1.976-.872,3.941-1.22,5.927-.18,1.026-.327,2.215.859,2.778,1.16.551,2.191-.011,3.1-.769.3-.249.561-.539.846-.8s.164-.442-.038-.686C-786.538,298.5-786.773,298.757-787.085,299.055Z" transform="translate(-368.495 -91.929)" fill="#010101"/>
    <path id="Trazado_654868" data-name="Trazado 654868" d="M-549.54,274.034c-.451.443-.914,1.225-1.621.833s-.178-1.2-.166-1.828a2.9,2.9,0,0,1,.118-.569c.478-2.12.969-4.237,1.421-6.362.072-.336.455-.937-.288-.973-.929-.046-1.866.066-2.8.106a.362.362,0,0,0-.382.346c-.027.161-.031.35.144.382,1.66.3.887,1.494.752,2.3-.328,1.948-.967,3.837-1.137,5.453-.124,2.442,1.152,3.3,3.044,2.434a6.72,6.72,0,0,0,1.728-1.367c.282-.266.32-.469.037-.772C-549.011,273.675-549.219,273.719-549.54,274.034Z" transform="translate(-494.61 -78.691)" fill="#010101"/>
    <path id="Trazado_654869" data-name="Trazado 654869" d="M-296.645,273.968a3.6,3.6,0,0,1-.5.489c-.355.294-.729.709-1.224.41-.427-.258-.321-.752-.232-1.171.487-2.276.985-4.55,1.478-6.825.4-1.829.395-1.83-1.438-1.724-.505.031-1.011.063-1.517.089-.24.012-.326.156-.359.369a.3.3,0,0,0,.289.394c.972.129.9.8.758,1.487-.423,2.091-.883,4.175-1.259,6.274-.167.929-.185,1.944.807,2.479a2.578,2.578,0,0,0,2.832-.468c.41-.289.742-.685,1.127-1.012.319-.272.272-.491,0-.768S-296.369,273.63-296.645,273.968Z" transform="translate(-628.814 -78.683)" fill="#010101"/>
    <path id="Trazado_654870" data-name="Trazado 654870" d="M-740.455,244.821c-.167.929-.186,1.945.806,2.48a2.578,2.578,0,0,0,2.832-.467c.41-.29.742-.685,1.127-1.012.318-.271.274-.491,0-.768s-.484-.365-.76-.026a3.625,3.625,0,0,1-.5.489c-.355.295-.729.709-1.224.412-.428-.257-.323-.752-.233-1.17.487-2.276.985-4.55,1.478-6.825.4-1.83.4-1.831-1.436-1.725-.506.031-1.011.063-1.516.089-.24.012-.327.155-.361.369-.036.233.05.363.288.394.972.129.9.8.76,1.486C-739.618,240.638-740.079,242.722-740.455,244.821Z" transform="translate(-395.308 -63.319)" fill="#010101"/>
    <path id="Trazado_654871" data-name="Trazado 654871" d="M-253.811,162.821a25.6,25.6,0,0,0-.881,4.8c-.013,1.666,1.01,2.4,2.616,1.929a5.634,5.634,0,0,0,2.252-1.606c.336-.323.145-.526-.091-.768s-.431-.307-.675-.026a4.694,4.694,0,0,1-.5.493c-.352.3-.723.725-1.219.474-.513-.26-.365-.805-.27-1.255.483-2.277.984-4.55,1.476-6.826.382-1.767.379-1.768-1.389-1.668-.505.03-1.011.069-1.517.083-.3.008-.4.175-.423.437s.15.312.354.343c.8.122.854.674.731,1.307C-253.492,161.3-253.659,162.06-253.811,162.821Z" transform="translate(-653.26 -21.993)" fill="#010101"/>
    <path id="Trazado_654872" data-name="Trazado 654872" d="M-393.757,162.852a29.712,29.712,0,0,0-.866,4.57c-.072,1.9,1.1,2.733,2.865,2.051a6.2,6.2,0,0,0,2.02-1.552c.341-.335.076-.533-.137-.766-.242-.266-.452-.241-.672.021a2.582,2.582,0,0,1-.327.333c-.409.336-.8.909-1.392.59-.538-.291-.32-.9-.219-1.381.474-2.239.971-4.474,1.454-6.711.375-1.736.372-1.737-1.426-1.634-.506.03-1.011.063-1.516.087a.364.364,0,0,0-.38.348c-.039.222.011.379.26.412,1.059.141.907.87.766,1.584C-393.464,161.487-393.622,162.167-393.757,162.852Z" transform="translate(-578.965 -21.993)" fill="#010101"/>
    <path id="Trazado_654873" data-name="Trazado 654873" d="M-542.691,162.838a27.689,27.689,0,0,0-.876,4.686c-.045,1.779,1.051,2.558,2.744,1.99a5.889,5.889,0,0,0,2.136-1.58c.34-.328.108-.53-.115-.767s-.44-.271-.674,0a4.647,4.647,0,0,1-.5.491c-.353.3-.731.722-1.221.457s-.349-.814-.252-1.265c.485-2.277.985-4.55,1.476-6.826.378-1.752.376-1.752-1.408-1.649-.506.029-1.011.061-1.517.084a.366.366,0,0,0-.393.334c-.039.216-.016.391.242.423,1.054.133.929.85.784,1.573C-542.4,161.472-542.555,162.153-542.691,162.838Z" transform="translate(-499.887 -21.994)" fill="#010101"/>
    <path id="Trazado_654874" data-name="Trazado 654874" d="M-1177.78,209.771c-2.109.022-4.22.008-6.33.009-2.071,0-4.142.025-6.212-.015-.673-.013-.859.2-.853.859.006.634.146.877.838.872q6.271-.045,12.542,0c.7,0,.942-.184.942-.916S-1177.187,209.765-1177.78,209.771Z" transform="translate(-156.053 -49.299)" fill="#0f0f0f"/>
    <path id="Trazado_654875" data-name="Trazado 654875" d="M-1177.795,219.972c-4.175.011-8.35.021-12.525-.008-.661,0-.849.179-.847.839s.182.862.851.849c2.107-.041,4.214-.015,6.321-.015,2.068,0,4.137-.029,6.2.016.715.015.927-.183.936-.911C-1176.845,219.962-1177.239,219.97-1177.795,219.972Z" transform="translate(-156.058 -54.714)" fill="#020202"/>
    <path id="Trazado_654876" data-name="Trazado 654876" d="M-294.585,258.157c1.049.059,1.46-.481,1.5-1.888.023-.888-.708-.236-.936-.466-1.157,0-1.617.576-1.589,1.887C-295.6,258.541-294.94,258.137-294.585,258.157Z" transform="translate(-631.533 -73.732)" fill="#090909"/>
    <path id="Trazado_654877" data-name="Trazado 654877" d="M-547.553,258.173c1.083.059,1.61-.6,1.586-1.927-.014-.751-.637-.268-.881-.43-1.3-.013-1.542.308-1.651,1.807C-548.566,258.541-547.905,258.154-547.553,258.173Z" transform="translate(-497.266 -73.745)" fill="#090909"/>
    <path id="Trazado_654878" data-name="Trazado 654878" d="M-733.875,229.234c.36.1.541-.138.607-.516.1-.568.261-1.126.393-1.672a1.592,1.592,0,0,0-1.057-.168,1.543,1.543,0,0,0-1.523,1.967C-735.236,229.72-734.409,229.092-733.875,229.234Z" transform="translate(-397.98 -58.378)" fill="#090909"/>
    <path id="Trazado_654879" data-name="Trazado 654879" d="M-784.916,283.061c1.063,0,1.549-.6,1.54-1.929-.006-.854-.7-.4-1.04-.421-1.035-.073-1.553.627-1.491,1.881C-785.865,283.424-785.2,282.885-784.916,283.061Z" transform="translate(-371.22 -86.913)" fill="#0a0a0a"/>
    <path id="Trazado_654880" data-name="Trazado 654880" d="M-248.625,151.337c1.022,0,1.6-.743,1.539-1.957-.045-.815-.721-.37-1.075-.392-1.079-.068-1.392.371-1.448,1.8C-249.646,151.731-248.9,151.154-248.625,151.337Z" transform="translate(-655.958 -16.976)" fill="#090909"/>
    <path id="Trazado_654881" data-name="Trazado 654881" d="M-388.611,151.337c1.129,0,1.512-.467,1.563-1.9.032-.891-.677-.423-1.007-.446-1.088-.076-1.531.525-1.517,1.852C-389.562,151.71-388.883,151.157-388.611,151.337Z" transform="translate(-581.648 -16.977)" fill="#090909"/>
    <path id="Trazado_654882" data-name="Trazado 654882" d="M-537.536,151.338c1.1,0,1.53-.528,1.554-1.914.015-.873-.686-.411-1.021-.434-1.064-.074-1.541.569-1.505,1.865C-538.485,151.706-537.812,151.16-537.536,151.338Z" transform="translate(-502.572 -16.977)" fill="#090909"/>
  </g>
</svg>
